<?xml version="1.0" encoding="UTF-8" standalone="no"?>
<!-- Created with Inkscape (http://www.inkscape.org/) -->

<svg
   version="1.1"
   id="svg60422"
   xml:space="preserve"
   width="818.66669"
   height="818.66669"
   viewBox="0 0 818.66669 818.66669"
   sodipodi:docname="color-feathers-pdv.svg"
   inkscape:version="1.1.2 (b8e25be833, 2022-02-05)"
   xmlns:inkscape="http://www.inkscape.org/namespaces/inkscape"
   xmlns:sodipodi="http://sodipodi.sourceforge.net/DTD/sodipodi-0.dtd"
   xmlns="http://www.w3.org/2000/svg"
   xmlns:svg="http://www.w3.org/2000/svg"><defs
     id="defs60426"><clipPath
       clipPathUnits="userSpaceOnUse"
       id="clipPath60436"><path
         d="M 0,614 H 614 V 0 H 0 Z"
         id="path60434" /></clipPath></defs><sodipodi:namedview
     id="namedview60424"
     pagecolor="#ffffff"
     bordercolor="#666666"
     borderopacity="1.0"
     inkscape:pageshadow="2"
     inkscape:pageopacity="0.0"
     inkscape:pagecheckerboard="0"
     showgrid="false"
     inkscape:zoom="1.0150651"
     inkscape:cx="409.33334"
     inkscape:cy="409.33334"
     inkscape:window-width="1920"
     inkscape:window-height="1018"
     inkscape:window-x="-8"
     inkscape:window-y="-8"
     inkscape:window-maximized="1"
     inkscape:current-layer="g60428" /><g
     id="g60428"
     inkscape:groupmode="layer"
     inkscape:label="color-feathers-pdv"
     transform="matrix(1.3333333,0,0,-1.3333333,0,818.66667)"><g
       id="g60430"><g
         id="g60432"
         clip-path="url(#clipPath60436)"><path
           d="m 124.984,204.518 0.395,0.107 v 0.007 l 10.778,1.892 -0.08,-0.018 -10.698,-1.874 v -0.007 l -0.395,-0.107 0.395,-0.643 v -0.006 z M 332.141,520 c 0.105,-0.021 0.22,-0.038 0.305,-0.061 0.311,-0.1 0.632,-0.385 0.903,-0.709 0.544,-0.668 0.934,-1.569 1.078,-2.496 0.144,-0.926 0.014,-1.899 -0.493,-2.603 -0.489,-0.709 -1.336,-1.177 -2.263,-1.399 -0.197,-0.057 -0.481,-0.107 -0.764,-0.154 -0.202,-0.027 -0.469,-0.059 -0.711,-0.065 -0.49,-0.031 -1.005,0.008 -1.508,0.049 -1.018,0.109 -2.03,0.323 -3.003,0.584 -0.141,0.039 -0.274,0.083 -0.414,0.124 z M 181.446,325.708 c 0.606,1.202 1.213,2.397 1.821,3.59 l 20.796,-33.743 c -0.744,-1.004 -1.495,-2.023 -2.242,-3.039 z m 12.323,-45.573 c 0.226,-0.526 0.435,-1.022 0.633,-1.501 l -19.73,32.793 c 0.714,1.613 1.414,3.156 2.105,4.655 0.08,-0.164 0.158,-0.321 0.253,-0.513 1.92,-3.899 6.722,-13.693 11.043,-22.894 2.16,-4.601 4.199,-9.053 5.696,-12.54 m -23.25,21.524 c 0.069,-0.132 0.135,-0.254 0.216,-0.404 1.949,-3.66 6.823,-12.868 11.207,-21.596 2.192,-4.361 4.262,-8.605 5.779,-11.968 0.489,-1.085 0.914,-2.066 1.274,-2.941 l -20.8,31.132 c 0.778,1.977 1.552,3.897 2.324,5.777 m -23.521,-103.71 -3.445,3.741 v 0.008 c 0,2.792 0.606,5.603 1.013,8.417 0.155,-0.294 0.284,-0.612 0.466,-0.965 1.304,-2.51 3.24,-6.374 4.866,-9.964 0.811,-1.795 1.532,-3.525 2.052,-4.971 0.233,-0.638 0.377,-1.213 0.513,-1.722 l -8.91,9.205 v -0.008 l 3.445,-3.741 0.232,-0.287 -0.146,-0.374 c -0.024,-0.072 -0.107,-0.143 -0.132,-0.216 l 5.688,-5.885 v -0.009 l -5.698,5.894 c 0.026,0.073 0.073,0.144 0.098,0.216 l 0.177,0.374 z m -10.425,-23.147 c -1.393,5.277 -2.635,10.571 -3.747,15.876 l 3.978,2.394 0.675,0.407 c -0.001,-0.033 -0.001,-0.063 -0.004,-0.094 l -0.466,-0.313 c -0.213,-3.666 -0.304,-7.301 -0.304,-10.883 0,-2.049 0.358,-4.082 0.358,-6.096 v 0.002 -0.004 -0.009 l 0.212,-0.08 0.23,-0.089 h -0.442 v 0.166 -0.022 0.021 l 0.112,0.004 -0.112,0.002 v 0.009 -0.009 0.011 -0.002 -0.036 l 0.299,0.021 c -0.008,-0.347 -0.401,-0.691 -0.401,-1.033 0,-0.083 -0.191,-0.162 -0.191,-0.243 0.217,-0.825 0.363,-1.65 0.578,-2.474 0.004,-0.095 -0.017,-0.19 -0.012,-0.285 -0.252,0.919 -0.52,1.838 -0.763,2.759 m 0.824,26.119 -8.781,-1.953 c 0.348,1.166 0.743,2.248 1.125,3.187 l 8.179,3.741 c -0.191,-1.663 -0.37,-3.324 -0.523,-4.975 m -6.834,-7.098 c 1.576,1.437 3.532,2.947 5.089,4.091 0.617,0.452 1.14,0.825 1.584,1.139 -0.124,-1.445 -0.244,-2.889 -0.337,-4.323 l -8.653,-3.415 c 0.47,0.702 1.312,1.593 2.317,2.508 m -4.72,11.869 c 0.654,0.837 1.903,1.905 3.386,2.98 2.227,1.621 4.986,3.296 7.184,4.559 1.071,0.617 2.004,1.133 2.685,1.504 -0.364,-2.401 -0.7,-4.803 -0.994,-7.198 l -12.509,-2.192 c 0.067,0.109 0.149,0.225 0.248,0.347 m 184.513,293.405 5.089,-12.972 c 0.437,-2.337 0.807,-5.029 0.807,-7.596 10e-4,-1.275 -0.102,-2.51 -0.317,-3.658 l -10.605,19.252 c 1.7,1.701 3.374,3.355 5.026,4.974 m -1.404,-29.021 -7.906,19.722 c 1.106,1.127 2.2,2.229 3.288,3.324 l 7.394,-14.999 c -0.833,-2.555 -1.769,-5.253 -2.776,-8.047 m -3.576,-10.539 -11.243,23.467 v 0.003 l 11.276,-23.517 z m -3.785,-8.246 -13.134,25.353 c 0.684,0.737 1.367,1.46 2.047,2.184 l 10.61,-20.918 -8.707,22.931 c 0.525,0.553 1.05,1.105 1.572,1.653 0,10e-4 0.002,10e-4 0.002,0.003 l 10.958,-23.028 c -0.013,-0.035 -0.027,-0.071 -0.042,-0.106 -1.04,-2.622 -2.147,-5.318 -3.306,-8.072 m -3.163,-10.586 0.11,0.242 -15.513,29.818 c 1.502,1.646 2.993,3.259 4.478,4.857 l 13.531,-26.112 c 0.533,-2.019 0.761,-4.23 0.76,-6.358 0.004,-2.755 -0.385,-5.37 -0.922,-7.213 z m -19.716,25.304 c 1.127,1.254 2.246,2.486 3.366,3.716 0,0.002 0.003,0.003 0.003,0.004 l 14.995,-28.82 c -0.035,-0.079 -0.074,-0.16 -0.108,-0.238 -0.816,-1.816 -1.662,-3.658 -2.521,-5.513 z m -4.314,-70.015 -27.212,32.431 c 1.392,1.782 2.787,3.543 4.181,5.292 l 24.945,-34.287 c -0.746,-1.348 -1.212,-2.192 -1.914,-3.436 m -0.986,-11.759 -27.538,31.411 -4.438,5.184 c -0.016,-0.02 -0.036,-0.041 -0.054,-0.06 l -0.056,0.064 c 0.439,0.581 0.882,1.144 1.324,1.72 l 21.685,-23.098 -20.147,25.091 c 0.721,0.936 1.441,1.883 2.165,2.81 l 28.605,-34.937 c 0.112,-0.649 0.167,-1.28 0.167,-1.89 0.002,-2.47 -0.831,-4.621 -1.713,-6.295 m -11.286,-9.027 -31.171,31.636 c 1.286,1.782 2.581,3.551 3.874,5.309 l 29.808,-32.86 c -0.971,-1.605 -1.565,-2.567 -2.511,-4.085 m -37.081,23.301 c 0.573,0.822 1.151,1.62 1.725,2.435 l 28.407,-26.682 -26.918,28.785 c 0.639,0.903 1.277,1.817 1.918,2.711 0.001,0 0.001,0 0.001,0.001 l 32.185,-32.662 0.818,-0.833 c -0.788,-1.392 -1.226,-2.724 -1.636,-3.99 -0.379,-1.174 -0.767,-2.295 -1.403,-3.441 z m -56.414,19.753 68.88,8.36 c -1.752,-2.277 -3.507,-4.572 -5.254,-6.914 l -72,-8.552 c 2.324,3.982 4.874,6.014 8.374,7.106 m 11.691,21.725 74.958,8.878 c -1.274,-1.532 -2.548,-3.069 -3.824,-4.633 l -44.009,-4.731 41.851,2.063 c -0.767,-0.949 -1.533,-1.888 -2.299,-2.845 l -73.077,-5.839 c 1.834,2.622 4.386,5.477 6.4,7.107 m 9.292,9.671 72.206,6.968 c -1.769,-2.065 -3.539,-4.158 -5.314,-6.279 l -75.681,-5.413 c 0.948,1.157 1.885,1.905 3.017,2.526 1.451,0.795 3.268,1.37 5.772,2.198 m 87.003,22.788 -0.82,-0.305 c -1.918,-2.118 -3.849,-4.153 -5.788,-6.749 h -0.248 l -67.844,0.004 c 2.018,2.318 3.553,3.753 5.972,6.09 l 67.908,0.986 0.897,0.037 c -0.027,-0.029 -0.052,-0.034 -0.077,-0.063 m 34.83,27.716 c 1.945,1.899 3.854,3.734 5.725,5.512 0.317,-0.826 0.654,-1.694 1.015,-2.602 0.754,-2.751 1.527,-6.416 1.526,-10.344 0,-1.598 -0.13,-3.237 -0.438,-4.872 z m -35.324,17.185 c 2.179,0.335 4.403,0.481 6.627,0.481 6.879,0.002 13.742,-1.413 19.166,-3.035 2.711,-0.81 5.067,-1.672 6.884,-2.429 1.717,-0.712 2.949,-1.34 3.513,-1.709 0.084,-0.133 0.164,-0.288 0.239,-0.464 -1.828,-1.73 -3.701,-3.532 -5.595,-5.37 z m -9.105,-64.692 c 1.645,1.926 3.283,3.817 4.92,5.69 l 18.511,-31.632 c -1.003,-2.065 -2.035,-4.15 -3.085,-6.25 z m -89.63,-22.505 68.456,7.121 c -0.836,-1.05 -1.673,-2.105 -2.511,-3.168 l -44.41,-4.694 42.341,2.052 c -0.873,-1.121 -1.748,-2.238 -2.622,-3.369 l -66.709,-5.489 c 1.611,2.661 2.877,4.394 5.455,7.547 m 48.32,-19.351 -71.419,-13.769 c 1.873,3.264 5.274,7.137 8.689,9.786 l 68.139,11.356 c -1.807,-2.433 -3.611,-4.883 -5.409,-7.373 m 24.67,93.877 48.291,-8.051 c -1.918,-1.928 -3.861,-3.902 -5.829,-5.929 l -51.491,12.222 c 3.337,1.359 5.561,1.579 9.029,1.758 m -12.547,-7.968 53.847,-7.214 c -2.156,-2.231 -4.337,-4.512 -6.539,-6.851 l -58.473,9.648 c 2.306,1.465 3.945,2.304 5.44,2.874 1.753,0.668 3.374,0.993 5.725,1.543 m -19.281,-108.7 c 2.273,3.419 2.62,3.869 4.852,7.063 l 31.37,-34.112 c 0.191,-0.778 0.329,-1.58 0.329,-2.441 -0.002,-1.522 -0.41,-3.242 -1.714,-5.339 z m -11.324,-16.483 c 0.596,0.955 1.203,1.891 1.803,2.842 l 22.922,-24.419 -21.301,26.528 -0.632,-0.549 c 0.739,1.165 1.473,2.341 2.217,3.495 l 29.79,-34.098 c -1.694,-2.307 -3.618,-4.855 -5.724,-7.616 z m 8.384,-49.194 -19.785,30.138 c 1.104,1.927 2.216,3.846 3.336,5.754 l 24.4,-37.029 c -1.269,-1.641 -2.572,-3.332 -3.892,-5.046 z m -25.886,19.218 c 0.669,1.225 1.341,2.447 2.016,3.666 l 22.468,-32.155 1.621,-2.316 c -0.049,-1.214 -0.12,-2.447 -0.297,-3.523 -0.111,-0.687 -0.274,-1.291 -0.475,-1.795 z m -22.077,-100.73 -11.94,19.409 11.943,-19.409 z m -13.434,13.817 c 0.406,1.429 0.824,2.846 1.245,4.261 l 2.846,-4.626 8.568,-13.921 c -0.001,0 -0.001,-0.002 -0.001,-0.002 -0.584,-0.916 -1.2,-1.666 -1.826,-2.585 z m 2.171,-32.538 -7.319,12.476 c 0.532,2.342 1.1,4.67 1.678,6.992 l 8.579,-13.868 c -1.011,-1.875 -1.989,-3.743 -2.938,-5.6 m -9.301,3.163 c 0.46,2.323 0.966,4.638 1.476,6.953 0.176,-0.449 0.377,-0.956 0.598,-1.522 1.26,-3.222 3.153,-8.16 4.726,-12.697 0.787,-2.267 1.493,-4.436 2.001,-6.233 0.175,-0.617 0.315,-1.172 0.438,-1.693 z m -3.857,-25.301 2.473,-2.627 c -1.517,-4.503 -2.711,-8.868 -3.534,-13.065 0.146,5.15 0.515,10.395 1.061,15.692 m -3.866,16.513 -10.555,-2.419 c -0.335,2.511 -0.644,5.024 -0.918,7.535 l 12.916,3.307 c -0.523,-2.81 -1.003,-5.618 -1.443,-8.423 m -17.875,30.761 v 0.013 c 0,0.233 -0.247,0.459 -0.22,0.683 0.131,1.128 0.427,2.164 1.134,3.099 0.846,1.115 1.991,2.078 3.427,2.823 l 24.275,9.076 c -0.983,-3.219 -1.288,-4.264 -2.309,-8.035 l -26.488,-6.963 c -0.022,-0.179 0.419,-0.36 0.489,-0.543 z m 36.059,38.538 -33.714,-4.8 c 0.145,1.234 0.394,2.119 0.848,3.046 0.527,1.074 1.369,2.273 2.624,4.092 l 33.164,5.598 c -0.347,-0.914 -0.694,-1.834 -1.037,-2.765 l -27.45,-4.954 26.512,2.402 c -0.317,-0.87 -0.633,-1.737 -0.947,-2.619 m -12.719,-73.361 c 0.549,3.597 1.183,7.2 1.87,10.8 l 5.424,-9.895 c -0.944,-2.061 -1.833,-4.103 -2.677,-6.126 z m -1.45,24.957 -21.844,-3.771 c 0.063,0.322 0.19,0.55 0.402,0.799 0.297,0.338 0.816,0.693 1.516,1.131 l 21.359,7.904 c -0.492,-2.016 -0.974,-4.035 -1.433,-6.063 m -10.751,84.63 42.316,5.289 c -0.212,-0.417 -0.422,-0.829 -0.631,-1.254 -0.749,-1.522 -1.522,-3.145 -2.31,-4.827 l -38.956,-4.631 37.726,1.963 c -0.638,-1.393 -1.28,-2.821 -1.933,-4.301 l -43.144,-1.656 c 0.213,0.502 0.525,1.033 0.932,1.584 0.945,1.284 2.307,2.632 3.522,4.001 1.084,1.233 2.043,2.477 2.478,3.832 m 32.727,-15.934 -40.612,-4.214 c 0.477,1.111 1.074,2.152 1.957,3.187 1.124,1.315 2.721,2.63 5.132,4.031 l 36.394,3.761 c -0.945,-2.173 -1.905,-4.427 -2.871,-6.765 m -33.768,25.42 49.96,8.653 c -0.798,-1.504 -1.593,-3.014 -2.376,-4.531 l -0.016,0.139 -36.666,-5.412 35.352,2.677 c -0.727,-1.426 -1.455,-2.85 -2.171,-4.285 l -45.609,-2.68 c 0.259,1.138 0.456,1.795 0.666,2.464 0.238,0.748 0.497,1.535 0.86,2.975 m 50.746,10.142 -46.356,-5.463 c 0.636,2.569 0.943,3.636 1.719,6.411 l 50.92,10.469 c -0.839,-1.484 -1.674,-2.971 -2.502,-4.466 l -35.732,-6.744 34.191,3.924 c -0.75,-1.374 -1.5,-2.748 -2.24,-4.131 m -39.089,27.149 64.769,16.175 c -1.131,-1.74 -2.254,-3.489 -3.375,-5.248 l -42.517,-10.024 40.648,7.062 c -1.348,-2.146 -2.691,-4.299 -4.02,-6.472 l -58.539,-9.28 c 0.628,1.914 0.948,2.727 1.294,3.535 0.386,0.903 0.826,1.854 1.74,4.252 m 1.578,12.233 73.341,19.094 c -1.106,-1.601 -2.207,-3.211 -3.307,-4.833 l -44.688,-11.832 42.671,8.831 c -1.257,-1.883 -2.516,-3.769 -3.763,-5.674 L 143.19,376.385 c 1.093,2.891 1.232,3.294 1.628,4.623 m 74.005,-65.963 c -0.76,-0.987 -1.53,-1.989 -2.303,-2.999 l -24.069,34.449 c 0.876,1.57 1.757,3.133 2.643,4.688 l 10.803,-16.452 z m -67.63,-48.435 -29.255,-7.613 c 0.446,0.399 1.04,0.855 1.777,1.342 4.071,2.71 11.921,6.401 18.716,9.387 3.401,1.494 6.543,2.817 8.835,3.765 0.988,0.409 1.803,0.744 2.428,0.997 -0.851,-2.591 -1.684,-5.218 -2.501,-7.878 m -0.008,-23.228 c 0.232,0.929 0.48,1.849 0.721,2.774 l 10.817,-14.278 -10.039,17.242 c 0.329,1.221 0.668,2.433 1.007,3.643 l 9.754,-18.431 c -0.328,-1.582 -0.589,-2.522 -0.929,-3.372 -0.274,-0.684 -0.621,-1.349 -1.122,-2.278 z m 18.962,-5.85 -1.73,2.81 0.001,0.002 -12.243,19.896 -0.217,0.354 c 0.211,0.703 0.429,1.392 0.643,2.092 l 11.795,-15.572 -10.851,18.64 c 0.489,1.558 0.986,3.094 1.486,4.626 l 12.568,-21.816 c -0.358,-0.728 -0.556,-1.598 -0.691,-2.569 -0.23,-1.703 -0.26,-3.693 -0.378,-5.483 -0.067,-1.124 -0.19,-2.173 -0.383,-2.98 m 9.233,23.134 c -1.046,-1.577 -2.087,-3.154 -3.116,-4.737 l -14.438,22.759 c 0.953,2.747 1.918,5.427 2.886,8.054 0.004,0.01 0.006,0.019 0.01,0.029 l 14.965,-25.639 c -0.103,-0.155 -0.204,-0.312 -0.307,-0.466 m 2.982,-2.618 -1.445,2.564 c 0.03,0.045 0.06,0.09 0.09,0.135 l 0.228,0.341 -15.925,27.282 c 0.756,2.026 1.514,3.997 2.271,5.941 0.411,-0.694 0.987,-1.666 1.678,-2.843 2.138,-3.636 5.361,-9.174 8.113,-14.139 1.374,-2.481 2.63,-4.82 3.572,-6.699 0.471,-0.939 0.861,-1.762 1.148,-2.425 0.285,-0.661 0.465,-1.18 0.508,-1.418 0.296,-1.549 0.442,-3.041 0.442,-4.399 0.004,-1.717 -0.241,-3.214 -0.68,-4.34 m 14.498,27.674 -19.358,31.925 c 0.509,1.093 1.011,2.145 1.506,3.173 l 19.284,-33.121 c -0.48,-0.658 -0.957,-1.317 -1.432,-1.977 m 3.048,73.778 c 1.004,1.688 2.011,3.369 3.021,5.041 l 26.304,-38.2 c -0.264,-1.675 -0.346,-2.727 -0.588,-3.594 -0.206,-0.748 -0.553,-1.462 -1.286,-2.497 z m 69.237,25.642 c -0.003,-1.305 -0.267,-2.277 -0.675,-3.187 -0.302,-0.67 -0.699,-1.322 -1.12,-2.002 l -31.718,33.29 c 0.563,0.762 1.131,1.507 1.694,2.264 l 22.886,-24.382 -21.289,26.515 c 0.53,0.704 1.055,1.418 1.586,2.117 l 28.566,-33.503 c 0.041,-0.391 0.07,-0.769 0.07,-1.112 m 1.223,1.446 -29.45,33.714 c 0.027,0.036 0.053,0.073 0.081,0.109 0.107,0.142 0.214,0.277 0.323,0.419 l 0.055,-0.066 c -0.104,-0.118 -0.23,-0.233 -0.32,-0.353 -0.027,-0.036 0.148,-0.073 0.119,-0.109 l 26.157,-29.736 3.242,-3.774 0.238,-0.186 0.016,-0.018 2.296,-2.877 c -0.03,-0.055 -0.063,-0.117 -0.094,-0.171 z m -18.142,48.205 c 1.423,1.776 2.843,3.526 4.265,5.266 l 23.158,-34.94 c 0.264,-2.253 0.512,-3.808 0.51,-4.979 -0.002,-0.555 -0.059,-1.016 -0.181,-1.456 z m 35.064,-19.529 c 0,-2.279 -0.562,-4.246 -1.236,-5.798 l -24.201,37.084 c 1.426,1.707 2.849,3.387 4.272,5.056 v 0.002 l 20.695,-32.743 c 0.329,-1.269 0.47,-2.474 0.47,-3.601 m 21.275,49.531 c 0.003,-2.836 -0.455,-5.692 -1.076,-7.844 l -1.157,2.454 0.043,0.11 -11.422,23.999 c 1.714,1.789 3.41,3.54 5.089,5.257 v 0.002 l 8.303,-20.713 v -10e-4 c 0.151,-1.056 0.22,-2.158 0.22,-3.264 m 7.465,-6.902 1.912,-3.468 4.393,13.512 0.139,-0.219 0.96,3.687 c 0.121,0.423 0.238,0.852 0.337,1.296 l 2.99,11.495 c 0.154,-0.282 0.292,-0.564 0.452,-0.846 1.26,-2.265 2.686,-4.586 4.417,-6.713 0.413,-0.489 0.974,-1.119 1.486,-1.601 0.515,-0.509 1.089,-0.976 1.677,-1.428 1.205,-0.874 2.623,-1.603 4.192,-1.898 1.557,-0.298 3.216,-0.16 4.607,0.409 1.402,0.551 2.581,1.389 3.532,2.346 1.901,1.922 3.121,4.193 3.648,6.586 0.124,0.604 0.185,1.223 0.167,1.857 -0.046,0.698 -0.172,1.158 -0.267,1.684 -0.226,1.078 -0.516,2.068 -0.888,3.012 -0.724,1.856 -1.873,3.547 -3.488,4.259 -1.641,0.721 -3.233,0.121 -4.112,-0.573 -0.931,-0.707 -1.413,-1.488 -1.705,-2.012 -0.284,-0.536 -0.387,-0.84 -0.387,-0.84 0,0 0.135,0.293 0.471,0.789 0.335,0.484 0.894,1.193 1.825,1.756 0.9,0.565 2.318,0.887 3.556,0.169 1.236,-0.705 2.09,-2.23 2.569,-3.982 0.244,-0.877 0.419,-1.842 0.516,-2.811 0.043,-0.5 0.111,-1.08 0.085,-1.451 -0.041,-0.439 -0.134,-0.898 -0.281,-1.362 -0.619,-1.858 -1.904,-3.718 -3.551,-5.032 -1.649,-1.341 -3.702,-1.945 -5.469,-1.341 -1.793,0.531 -3.419,2.231 -4.645,4.067 l -0.527,0.805 -0.412,0.731 c -0.293,0.529 -0.602,1.034 -0.881,1.571 -0.534,1.105 -1.099,2.168 -1.575,3.305 -1.008,2.218 -1.873,4.499 -2.692,6.703 -0.518,1.418 -0.995,2.802 -1.454,4.163 -0.076,0.813 -0.168,1.609 -0.28,2.375 0.027,-0.025 0.05,-0.05 0.077,-0.073 1.263,-1.142 2.64,-2.267 4.18,-3.277 0.788,-0.49 1.585,-0.976 2.476,-1.366 0.448,-0.207 0.871,-0.371 1.391,-0.549 0.407,-0.124 0.812,-0.253 1.353,-0.37 1.923,-0.459 4.135,-0.423 6.001,0.602 1.87,1.005 2.989,2.788 3.538,4.48 0.546,1.72 0.651,3.459 0.304,5.077 -0.2,0.802 -0.475,1.612 -1.116,2.262 -0.616,0.555 -1.167,0.896 -1.773,1.255 -1.18,0.678 -2.44,1.083 -3.592,0.997 -1.166,-0.056 -2.069,-0.786 -2.379,-1.518 -0.335,-0.734 -0.305,-1.368 -0.271,-1.769 0.042,-0.408 0.101,-0.617 0.101,-0.617 0,0 -0.033,0.217 -0.029,0.62 0.012,0.394 0.067,1.013 0.446,1.629 0.366,0.62 1.167,1.115 2.145,1.051 0.974,-0.043 2.036,-0.517 3.024,-1.253 0.474,-0.353 1.022,-0.823 1.401,-1.252 0.32,-0.385 0.499,-1.02 0.583,-1.663 0.148,-1.317 -0.095,-2.806 -0.679,-4.125 -0.583,-1.317 -1.557,-2.469 -2.798,-2.958 -1.217,-0.513 -2.705,-0.414 -4.086,0.068 -0.304,0.089 -0.71,0.259 -1.117,0.433 -0.284,0.134 -0.655,0.315 -0.973,0.506 -0.662,0.369 -1.295,0.844 -1.912,1.316 -1.226,0.987 -2.358,2.105 -3.398,3.251 -2.067,2.291 -3.789,4.669 -5.196,6.752 -0.047,0.141 -0.095,0.294 -0.137,0.421 l -0.671,1.958 c 0.297,-0.06 0.59,-0.123 0.896,-0.176 1.093,-0.181 2.242,-0.312 3.44,-0.324 0.603,0.01 1.212,0.023 1.836,0.122 0.317,0.044 0.606,0.103 0.954,0.19 0.267,0.074 0.534,0.145 0.87,0.271 1.214,0.426 2.412,1.223 3.075,2.438 0.671,1.205 0.659,2.576 0.363,3.696 -0.303,1.134 -0.859,2.122 -1.616,2.888 -0.348,0.33 -0.738,0.632 -1.229,0.787 l 75.484,73.944 -91.334,-73.814 c -0.381,1.5 -0.756,3.217 -0.969,5.057 -0.112,1 -0.17,2.033 -0.126,3.056 0.034,0.506 0.074,1.019 0.179,1.499 0.042,0.238 0.115,0.496 0.171,0.694 0.09,0.271 0.181,0.544 0.267,0.731 0.358,0.883 0.948,1.651 1.724,2.026 0.771,0.398 1.753,0.378 2.646,0.098 0.895,-0.283 1.728,-0.804 2.306,-1.441 0.28,-0.316 0.513,-0.677 0.565,-1 0.042,-0.34 0.036,-0.87 0.005,-1.224 -0.06,-0.794 -0.287,-1.52 -0.686,-2.009 -0.383,-0.516 -0.975,-0.677 -1.432,-0.602 -0.47,0.073 -0.78,0.332 -0.988,0.482 -0.191,0.182 -0.292,0.281 -0.292,0.281 0,0 0.089,-0.111 0.258,-0.315 0.192,-0.176 0.475,-0.482 0.982,-0.628 0.488,-0.149 1.241,-0.04 1.76,0.514 0.541,0.526 0.885,1.311 1.059,2.184 0.086,0.484 0.149,0.835 0.151,1.403 -0.044,0.592 -0.32,1.075 -0.627,1.515 -0.643,0.865 -1.536,1.563 -2.612,2.033 -1.062,0.458 -2.415,0.679 -3.711,0.196 -1.299,-0.473 -2.267,-1.538 -2.87,-2.674 -0.175,-0.313 -0.285,-0.566 -0.399,-0.82 -0.137,-0.328 -0.239,-0.607 -0.329,-0.915 -0.194,-0.601 -0.3,-1.2 -0.399,-1.795 -0.17,-1.186 -0.212,-2.343 -0.197,-3.45 0.04,-2.214 0.299,-4.235 0.571,-5.953 0.032,-0.189 0.064,-0.357 0.093,-0.538 -0.227,0.059 -0.464,0.12 -0.705,0.182 -0.867,0.524 -1.833,1.127 -2.869,1.808 -2.107,1.389 -4.516,3.094 -6.839,5.147 -1.157,1.03 -2.287,2.15 -3.286,3.365 -0.478,0.613 -0.962,1.239 -1.337,1.898 -0.194,0.314 -0.377,0.684 -0.516,0.97 -0.177,0.402 -0.351,0.809 -0.445,1.11 -0.497,1.377 -0.612,2.863 -0.111,4.087 0.477,1.245 1.617,2.231 2.928,2.828 1.313,0.597 2.801,0.855 4.116,0.721 0.646,-0.076 1.283,-0.249 1.671,-0.565 0.433,-0.376 0.908,-0.917 1.268,-1.389 0.743,-0.979 1.231,-2.036 1.282,-3.01 0.076,-0.979 -0.412,-1.783 -1.027,-2.156 -0.613,-0.385 -1.231,-0.445 -1.625,-0.461 -0.405,-0.011 -0.621,0.019 -0.621,0.019 0,0 0.211,-0.055 0.618,-0.093 0.402,-0.028 1.037,-0.053 1.766,0.289 0.729,0.319 1.45,1.228 1.494,2.394 0.073,1.153 -0.345,2.41 -1.033,3.582 -0.368,0.604 -0.715,1.149 -1.273,1.759 -0.659,0.635 -1.47,0.902 -2.275,1.093 -1.623,0.329 -3.359,0.209 -5.073,-0.357 -1.687,-0.566 -3.459,-1.703 -4.444,-3.586 -1.003,-1.875 -1.018,-4.087 -0.538,-6.007 0.123,-0.538 0.255,-0.941 0.385,-1.348 0.183,-0.516 0.351,-0.938 0.563,-1.385 0.399,-0.885 0.893,-1.678 1.391,-2.461 1.027,-1.529 2.166,-2.896 3.321,-4.146 0.161,-0.173 0.323,-0.327 0.484,-0.496 -1.025,0.279 -2.083,0.545 -3.168,0.797 -1.245,0.408 -2.509,0.832 -3.798,1.289 -2.214,0.794 -4.507,1.636 -6.73,2.622 -1.144,0.462 -2.211,1.017 -3.322,1.542 -0.541,0.272 -1.049,0.576 -1.579,0.863 l -0.735,0.404 -0.811,0.519 c -1.85,1.205 -3.568,2.814 -4.116,4.603 -0.623,1.761 -0.04,3.819 1.283,5.482 1.297,1.661 3.144,2.965 4.994,3.602 0.463,0.154 0.922,0.252 1.358,0.296 0.372,0.03 0.954,-0.033 1.454,-0.069 0.97,-0.088 1.937,-0.252 2.816,-0.487 1.758,-0.462 3.291,-1.299 4.007,-2.527 0.732,-1.231 0.424,-2.652 -0.131,-3.557 -0.553,-0.938 -1.255,-1.504 -1.737,-1.846 -0.492,-0.341 -0.783,-0.479 -0.783,-0.479 0,0 0.303,0.106 0.835,0.397 0.522,0.296 1.297,0.788 1.994,1.725 0.685,0.888 1.267,2.485 0.532,4.118 -0.731,1.609 -2.433,2.739 -4.298,3.445 -0.947,0.363 -1.94,0.641 -3.02,0.854 -0.525,0.091 -0.987,0.211 -1.687,0.251 -0.631,0.012 -1.252,-0.057 -1.856,-0.185 -2.386,-0.553 -4.644,-1.796 -6.546,-3.717 -0.947,-0.963 -1.772,-2.15 -2.307,-3.557 -0.556,-1.395 -0.677,-3.057 -0.363,-4.611 0.311,-1.567 1.056,-2.975 1.942,-4.17 0.457,-0.585 0.93,-1.154 1.445,-1.664 0.487,-0.506 1.123,-1.06 1.616,-1.469 0.79,-0.63 1.612,-1.208 2.444,-1.761 -3.016,-0.068 -6.04,-0.383 -8.997,-1.022 l -23.515,-5.014 11.591,-4.634 c -0.603,-0.209 -1.17,-0.379 -1.792,-0.607 l -5.412,-1.987 -2.117,0.364 -0.798,-0.036 c -4.54,-0.227 -8.193,-0.593 -13.938,-3.306 l -19.229,-9.074 5.409,-1.285 c -0.492,-0.312 -0.997,-0.636 -1.532,-0.994 l -15.699,-10.477 2.005,-0.331 c -2,-1.504 -4.012,-3.232 -6.899,-6.033 l -12.53,-12.138 6.476,-0.245 -2.393,-2.893 c -4.455,-3.243 -7.635,-5.866 -9.435,-8.29 l -2.342,-3.155 c -2.362,-1.291 -4.568,-3.115 -6.657,-6.181 l -8.665,-12.726 1.492,0.106 -7.792,-12.254 2.91,0.233 c -3.557,-2.187 -6.422,-5.415 -8.782,-9.93 l -6.543,-12.517 1.604,0.192 c -0.43,-0.726 -0.83,-1.443 -1.163,-2.142 l -5.21,-10.907 -2.78,-0.724 -1.197,-4.031 c -0.459,-1.543 -0.459,-1.543 -1.945,-5.474 l -4.515,-11.954 2.935,0.456 c -0.376,-0.956 -0.793,-2.133 -1.472,-4.257 l -1.626,-5.083 -1.728,-0.513 -1.488,-2.167 c -2.097,-3.056 -2.435,-6.351 -2.75,-8.03 -0.037,-0.208 0.176,-0.567 0.139,-0.733 l -3.277,-11.371 2.677,0.467 -0.289,-1.181 c -0.316,-1.295 -0.523,-1.94 -0.741,-2.627 -0.324,-1.025 -0.661,-2.084 -1.135,-4.329 l -1.604,-7.602 c -1.317,-1.727 -2.463,-3.72 -2.883,-6.091 l -1.607,-9.095 1.088,0.042 c -0.067,-0.177 -0.148,-0.341 -0.212,-0.523 l -4.022,-11.16 2.48,0.257 c -0.145,-0.722 -0.258,-1.494 -0.344,-2.333 l -0.954,-9.319 1.85,0.233 c -0.019,-0.197 -0.048,-0.372 -0.062,-0.576 l -0.638,-9.187 3.194,0.456 c -0.043,-0.894 -0.082,-1.819 -0.123,-2.794 l -0.119,-2.963 c -3.727,-2.774 -5.003,-5.209 -5.012,-8.279 l -0.023,-8.846 c -0.099,-0.733 -0.141,-1.48 -0.121,-2.237 l 0.03,-1.128 c -2.273,-2.302 -3.617,-5.374 -3.498,-8.461 l 0.35,-9.074 3.941,0.944 0.386,-5.066 2.265,0.392 c -0.031,-0.905 -0.017,-1.844 0.091,-2.862 l 0.859,-8.041 3.357,0.637 c 0.087,-0.653 0.164,-1.295 0.253,-1.952 v -0.002 c -3.805,-3.757 -3.937,-6.473 -3.527,-8.944 l 1.231,-7.423 0.882,0.155 -2.055,-7.873 2.483,0.553 0.006,-0.043 1.802,-8.659 4.786,1.884 c 1.283,-5.546 2.661,-10.874 4.179,-16.094 l 9.119,-31.346 c -0.204,1.174 5.044,37.148 4.976,38.483 l 4.254,0.039 c 0.062,3.099 0.464,6.486 1.201,10.139 l 6.304,-6.46 3.911,11.493 c 0.47,1.384 1.001,2.949 -0.358,7.37 l 3.974,8.634 c 0.79,1.717 1.55,3.378 -0.691,11.068 l 4.924,9.108 c 0.081,0.153 0.151,0.284 0.227,0.427 l 1.888,-3.068 6.304,10.54 c 1.712,2.863 1.88,6.299 2.045,9.625 0.05,1.031 0.123,2.516 0.247,3.27 0.237,0.375 0.483,0.753 0.723,1.127 l 2.158,-3.837 6.147,9.231 2.692,-4.029 6.221,9.104 c 1.159,1.694 1.767,3.129 1.28,5.806 l 4.665,6.535 c 2.238,3.133 1.649,6.218 -0.197,10.847 l 0.179,0.246 c 0,0 1.823,2.522 2.248,3.106 l 2.121,2.898 0.56,0.762 c 0,0 2.368,3.219 3.065,4.154 l 1.835,2.467 0.426,0.563 1.794,-2.558 6.176,8.12 c 1.881,2.475 2.495,5.566 2.737,8.549 0.338,0.439 0.706,0.918 1.089,1.416 l 2.154,-3.082 6.198,8.011 c 2.881,3.73 3.374,6.036 3.798,9.135 0.061,0.458 0.131,0.976 0.231,1.589 l 0.075,0.439 4.708,6.157 0.198,0.26 1.068,1.395 0.134,-0.153 5.489,7.576 c 0.711,0.983 1.432,1.996 2.169,3.03 l 3.431,-3.43 5.082,7.345 c 1.229,1.778 2.131,3.569 2.725,5.388 l 4.184,6.424 c 1.519,2.335 2.205,4.453 2.754,6.154 0.39,1.21 0.632,1.923 1.032,2.566 l 2.504,4.018 1.868,-2.139 5.228,8.938 c 1.487,2.54 2.467,5.089 2.953,7.629 l 3.776,6.838 0.221,-0.337 5.886,11.298 c 1.571,3.019 3.115,7.546 2.5,13.026 l 2.789,5.972 3.381,-6.601 6.353,14.165 c 1.005,2.245 1.767,5.583 2.023,9.28 l 4.72,11.922 c 0.587,1.482 1.12,3.359 1.508,5.449 M 440.123,109.916 c -1.459,2.723 -2.869,5.503 -4.25,8.309 2.404,-1.274 6.647,-3.559 10.595,-5.905 2.306,-1.368 4.51,-2.756 6.164,-3.956 0.623,-0.451 1.168,-0.876 1.605,-1.256 z m 0.912,-1.685 3.886,-0.845 c 1.429,-5.027 3.062,-9.729 4.928,-14.046 -3.076,4.763 -6.011,9.748 -8.814,14.891 m -3.644,-14.885 2.116,4.641 c 3.291,-5.445 6.742,-10.668 10.385,-15.563 0.262,-0.398 0.532,-0.778 0.8,-1.164 -4.555,3.925 -8.985,7.959 -13.301,12.086 m -4.554,-2.278 c 0,0.013 -0.002,0.023 -0.002,0.036 -0.002,0.972 0.231,2.37 0.596,3.878 0.542,2.267 1.366,4.804 2.051,6.766 0.259,0.742 0.5,1.399 0.698,1.935 0.785,-1.387 1.575,-2.77 2.383,-4.129 z m -5.384,10.763 5.088,8.482 c 0.861,-1.628 1.731,-3.245 2.621,-4.839 l -6.745,-7.235 c -0.409,1.276 -0.726,2.503 -0.964,3.592 m -5.741,0.315 c -10e-4,0.046 -0.006,0.083 -0.006,0.134 -0.006,1.065 0.417,2.797 1.077,4.711 0.987,2.883 2.487,6.229 3.735,8.841 0.623,1.306 1.184,2.428 1.589,3.226 1.168,-2.405 2.357,-4.79 3.581,-7.143 z m -2.51,9.889 c -1.869,2.069 -3.712,4.153 -5.523,6.263 l 9.654,11.034 c 1.273,-2.871 2.584,-5.718 3.932,-8.534 z m -18.756,13.193 c -0.103,0.243 -0.148,0.465 -0.15,0.702 -0.008,0.529 0.253,1.247 0.689,2.242 l 14.446,20.454 c 0.808,-2.132 1.628,-4.263 2.473,-6.389 z m -6.573,1.922 c -0.108,0.363 -0.172,0.774 -0.171,1.211 0,0.818 0.21,1.7 0.619,2.444 l 17.96,26.406 c 0.816,-2.302 1.648,-4.605 2.509,-6.905 z m -2.844,10.724 c -0.525,0.993 -0.776,2.073 -0.777,3.224 -0.002,1.646 0.512,3.423 1.421,5.126 l 16.39,23.353 c 1.113,-3.533 1.503,-4.658 2.924,-8.712 z m -6.023,10.632 c 0.139,0.561 0.351,1.234 0.651,2.003 1.899,4.893 6.751,13.211 11.114,20.249 2.181,3.522 4.244,6.735 5.758,9.067 0.663,1.017 1.213,1.855 1.632,2.49 0.842,-2.878 1.72,-5.781 2.633,-8.699 z m -2.876,11.213 c 0,0 -5.973,2.64 -7.703,5.579 l 26.241,26.819 c 0.849,-3.202 2.395,-4.333 3.452,-7.252 l -0.307,-0.46 c -0.002,-0.002 -0.958,-1.43 -2.452,-3.728 z m -9.081,9.886 c -0.543,1.031 -0.857,1.877 -1.038,2.791 -0.224,1.138 -0.095,2.437 -0.094,4.347 0,0.459 0.164,0.963 0.164,1.497 l 26.293,25.586 c 0.228,-0.933 0.459,-1.873 0.696,-2.819 L 377.316,179.23 399.838,198 c 0.262,-1.018 0.519,-2.03 0.791,-3.059 z m 25.101,35.114 -15.4,-14.841 15.39,14.887 z M 366.355,176.46 c -2,3.663 -2.039,4.957 -0.18,11.32 l 23.877,24.213 -29.999,-25.509 -0.002,0.01 29.971,25.499 5.856,5.93 c 0.056,-0.261 0.12,-0.536 0.176,-0.799 0.232,-1.077 0.478,-2.18 0.722,-3.28 l -22.349,-23.053 23.039,19.987 c 0.348,-1.521 0.71,-3.057 1.083,-4.611 l -12.612,-12.202 12.194,10.838 -11.96,-10.838 z m -11.284,22.964 c -0.097,0.47 -0.148,0.994 -0.147,1.573 -10e-4,1.299 0.218,2.816 0.445,4.359 0.226,1.542 0.46,3.109 0.461,4.559 -10e-4,0.838 -0.086,1.64 -0.31,2.382 l 35.051,31.106 c 0.069,-0.508 0.133,-1.014 0.208,-1.529 0.268,-1.845 0.576,-3.799 0.91,-5.812 l -32.437,-28.44 32.981,25.255 c 0.289,-1.659 0.595,-3.355 0.924,-5.104 z m -4.421,14.925 c -0.472,1.193 -0.703,1.912 -0.927,2.649 -0.251,0.825 -0.505,1.702 -1.072,3.232 l 39.91,38.932 c 0.211,-1.86 0.432,-3.722 0.664,-5.587 l -0.099,0.116 -29.874,-27.719 30.385,24.423 c 0.227,-1.745 0.454,-3.49 0.697,-5.237 z m 36.289,60.913 c 0.163,-1.867 0.332,-3.735 0.512,-5.606 l -28.199,-28.347 28.556,24.83 c 0.176,-1.712 0.349,-3.424 0.54,-5.139 L 349.72,227.202 c -1.022,2.728 -1.408,3.887 -2.432,6.884 z M 340.193,231.68 c -0.478,1.428 -0.994,3.793 -0.994,6.924 l 43.556,54.07 3.441,3.263 c 0.12,-2.212 0.231,-4.194 0.349,-6.096 l -29.363,-36.06 29.622,32.126 c 0.143,-2.038 0.307,-4.161 0.514,-6.611 z m -3.109,24.674 c -0.213,1.06 -0.404,2.196 -1.067,4.935 l 48.657,54.968 c 0.055,-2.279 0.126,-4.563 0.205,-6.857 l -32.312,-35.543 32.459,31.697 c 0.115,-2.784 0.236,-5.574 0.384,-8.372 l -47.299,-44.837 c -0.621,2.129 -0.838,3.061 -1.027,4.009 m -5.51,11.808 c 0.052,-0.223 -0.025,-0.461 0.017,-0.71 l -0.157,-0.096 c -0.07,0.286 -0.137,0.555 -0.199,0.806 -0.809,3.298 -0.932,3.751 -1.4,5.205 l 54.603,62.933 c -10e-4,-0.669 -0.006,-1.337 -0.006,-2.008 0,-1.651 0.017,-3.316 0.029,-4.974 l -33.159,-37.979 33.387,34.01 c 0.03,-2.308 0.312,-4.621 0.312,-6.94 v -0.038 l -2.185,-2.249 z m 53.385,92.604 c -0.125,-3.336 -0.243,-6.68 -0.322,-10.059 l -56.181,-56.919 c -0.058,0.699 -0.096,1.433 -0.096,2.208 -0.001,3.791 0.68,8.308 1.878,12.064 z m -59.801,-51.353 -0.01,-0.006 c -0.032,0.301 -0.062,0.598 -0.085,0.888 -0.049,0.657 -0.081,1.293 -0.081,1.898 0.009,4.065 1.081,6.999 3.261,9.763 l 57.234,50.44 c -0.171,-3.155 -0.476,-6.325 -0.476,-9.537 v -0.02 l -0.099,-0.107 -59.83,-52.437 c 0.023,-0.288 0.055,-0.583 0.086,-0.882 m -1.169,28.186 39.687,32.26 22.669,19.395 -22.665,-19.395 -39.691,-32.28 z m 61.073,36.818 -13.52,-12.149 -43.085,-35.206 c -0.003,0.035 0.063,0.068 0.061,0.104 l 42.923,35.102 z m 0.536,4.481 c -0.088,-1.485 -0.536,-2.969 -0.536,-4.463 l -56.537,-46.274 c -0.062,1.138 -0.096,2.174 -0.096,3.206 0,1.955 0.114,3.955 0.356,6.817 l 57.636,49.051 c -0.113,-1.56 -0.224,-3.124 -0.324,-4.698 l -37.323,-31.624 z m -60.272,-29.969 62.434,54.689 c -0.211,-2.275 -0.415,-4.557 -0.608,-6.865 l -36.934,-31.388 36.544,27.707 c -0.1,-1.27 -0.402,-2.531 -0.402,-3.806 l -62.409,-50.675 c 0.037,3.5 0.57,7.628 1.375,10.338 m -1.447,8.992 c 0.823,1.613 2.107,3.259 3.852,5.556 l 61.128,51.249 c -0.316,-2.973 -0.621,-5.973 -0.908,-9.002 l -65.247,-51.995 c 0.141,1.647 0.527,2.916 1.175,4.192 m 4.268,21.591 62.898,48.036 c -0.405,-3.311 -0.791,-6.683 -1.163,-10.08 l -0.581,-0.486 -13.582,-11.389 -0.183,-0.151 -51.268,-39.535 c 0.17,4.539 3.827,13.025 3.879,13.605 m 3.256,35.353 56.719,33.696 6.345,3.77 c -0.044,-0.283 -0.085,-0.576 -0.128,-0.859 -0.211,-1.369 -0.417,-2.75 -0.622,-4.139 l -46.028,-28.494 45.535,25.096 c -0.219,-1.514 -0.436,-3.024 -0.647,-4.557 L 325.65,397.077 c 1.671,8.256 2.719,10.208 5.753,17.788 m 10.769,21.275 53.307,26.962 c -0.566,-3.363 -1.124,-6.786 -1.666,-10.28 l -59.012,-27.636 c 2.565,6.008 4.051,7.298 7.371,10.954 m 6.417,15.027 48.791,22.751 c -0.54,-2.941 -1.072,-5.942 -1.596,-9.001 l -54.288,-20.959 c 2.18,3.308 4.06,4.889 7.093,7.209 m 23.218,23.404 24.425,9.674 4.176,1.655 c -0.051,-0.254 -0.243,-0.518 -0.294,-0.774 l 0.464,0.134 v -0.004 l -0.464,-0.131 c -0.131,-0.658 -0.191,-1.329 -0.32,-1.997 l -28.835,-13.747 28.261,10.529 c -0.245,-1.278 -0.481,-2.571 -0.723,-3.873 l -0.467,-0.22 -6.846,-3.192 -34.733,-12.325 c 5.474,7.735 9.214,11.381 15.356,14.271 m 13.226,16.45 c 3.854,1.449 7.438,2.481 10.289,3.147 2.703,0.637 4.77,0.937 5.694,0.963 0.16,-0.068 0.331,-0.161 0.51,-0.277 -0.582,-2.705 -1.158,-5.502 -1.731,-8.349 l -35.698,-7.818 c 6.055,5.668 13.928,9.703 20.936,12.334 m 34.093,-16.187 c 2.772,-2.76 5.89,-6.363 7.454,-9.901 l -21.602,10.861 c 0.481,2.599 0.969,5.139 1.46,7.635 z m -10.6,18.802 c 0.797,-0.55 1.639,-1.124 2.525,-1.722 1.137,-0.957 2.399,-2.092 3.685,-3.415 2.524,-2.596 5.087,-5.869 6.784,-9.71 l -14.755,6.287 c 0.583,2.931 1.17,5.783 1.761,8.56 m 4.902,22.405 c 0.02,0.009 0.051,0.023 0.071,0.031 0.342,0.101 0.811,0.046 1.259,-0.081 0.908,-0.268 1.822,-0.842 2.53,-1.593 0.706,-0.751 1.194,-1.713 1.171,-2.666 0,-0.946 -0.478,-1.899 -1.182,-2.675 -0.142,-0.176 -0.368,-0.397 -0.593,-0.617 -0.169,-0.148 -0.391,-0.345 -0.606,-0.501 -0.426,-0.334 -0.915,-0.617 -1.398,-0.894 -0.99,-0.533 -2.042,-0.969 -3.085,-1.338 -0.263,-0.091 -0.522,-0.168 -0.783,-0.252 z m 16.606,-72.605 -2.563,1.504 -0.189,0.115 -0.004,0.011 -1.317,0.678 -24.084,13.973 v 0.003 c 1.298,2.687 1.034,5.328 1.488,7.931 l 20.492,-13.611 c 2.831,-3.071 5.1,-7.353 6.177,-10.604 m -28.981,9.265 22.633,-12.364 -22.183,15.372 c 0.132,0.83 0.374,1.657 0.374,2.479 v 0.003 l 24.285,-14.059 c 0.009,-0.039 0.028,-0.082 0.039,-0.122 0.687,-3.024 1.367,-6.157 2.03,-9.375 l -27.68,14.813 c 0.164,1.093 0.334,2.174 0.502,3.253 m 3.642,21.565 16.041,-8.998 c 0.835,-2.844 1.672,-5.86 2.498,-9.029 l -6.209,4.14 -13.242,8.827 c 0.302,1.71 0.608,3.391 0.912,5.06 m 30.012,-48.665 c 1.108,-1.868 1.939,-3.77 2.431,-5.267 l -5.183,2.769 -32.675,17.632 v 0.002 c 0,2.428 0.689,4.952 1.042,7.326 l 28.53,-15.124 h -0.006 c 2.311,-2.596 4.339,-4.764 5.861,-7.338 m -1.279,-20.183 c 0.377,-2.494 0.738,-5.029 1.093,-7.583 l -6.033,2.59 -32.445,13.932 c 0.295,2.77 0.603,5.505 0.919,8.221 z m -2.721,16.993 c 0.019,-0.094 -0.018,-0.189 -10e-4,-0.282 0.392,-2.158 0.815,-4.35 1.19,-6.57 l -33.46,18.183 c 0.241,1.838 0.844,3.653 0.844,5.462 v 0.006 z m 9.469,-35.364 -45.017,18.564 c 0.232,2.434 0.477,4.844 0.728,7.24 l 39.13,-16.803 c 3.288,-2.861 4.628,-6.273 5.159,-9.001 m 1.178,-13.459 -47.206,15.373 c 0,2.494 0.183,4.965 0.39,7.425 l 42.638,-17.264 c 1.477,-1.696 2.546,-2.885 3.281,-3.881 0.438,-0.597 0.696,-1.115 0.897,-1.653 m 0.224,-0.922 -19.797,6.43 -2.135,0.76 21.923,-7.154 c 0.002,-0.013 0.008,-0.024 0.009,-0.036 m -3.672,-5.854 -40.812,11.279 -4.304,1.213 v 0.009 z m -0.319,5.074 c 0.164,-1.687 0.267,-2.743 0.405,-4.305 0.016,-0.192 0.035,-0.399 0.053,-0.609 l -0.153,0.044 c -0.025,0.194 -0.101,0.387 -0.116,0.565 l -39.428,10.894 -5.558,1.567 v 0.008 c 0,2.484 0.497,4.95 0.674,7.401 z m -43.439,17.062 24.842,-8.868 -2.534,0.896 z m 4.142,-2.156 20.905,-7.509 19.806,-6.487 0.093,-0.039 -20.031,6.526 -24.975,8.917 v 0.021 z m 46.133,-30.545 -51.572,13.276 c 0,0.801 -0.061,1.586 -0.019,2.385 l 33.957,-7.45 -33.917,10.211 c 0.071,1.269 0.116,2.547 0.191,3.812 l -0.17,0.039 c 0.001,0.016 -0.103,0.028 -0.103,0.044 v 0.011 l 46.6,-12.919 0.05,-0.025 -44.447,12.314 45.629,-13.256 c -0.039,0.04 -0.022,0.084 -0.063,0.124 l 0.496,0.512 -1.534,0.438 v 0.004 l -0.081,0.035 0.013,0.737 -0.626,0.193 0.008,0.009 0.694,-0.202 0.069,-0.772 1.518,-0.442 -0.511,-0.512 c 0.041,-0.04 0.072,-0.084 0.111,-0.124 2.576,-2.637 3.409,-5.857 3.707,-8.442 m -52.742,-17.094 c 0.009,1.282 0.04,2.548 0.056,3.825 l 42.352,-7.061 -42.311,9.866 c 0.018,1.044 0.024,2.094 0.046,3.135 v 10e-4 l 49.502,-9.586 1.264,-0.245 c 0.149,-1.755 0.58,-3.236 0.996,-4.638 0.387,-1.298 0.732,-2.557 0.87,-3.993 z m 54.613,-23.577 c -0.14,3.896 -1.27,6.176 -2.803,7.835 1.566,-1.659 2.789,-3.945 2.932,-7.844 z m -53.967,10.015 c -0.029,1.867 -0.039,3.076 -0.039,4.142 0,1.51 0.02,2.772 0.04,5.277 l 49.673,-11.404 c 0.946,-0.846 1.814,-1.808 2.468,-3.123 0.6,-1.214 1.005,-2.764 1.097,-4.788 z m 46.05,-182.196 c 0.252,-2.33 0.527,-4.631 0.824,-6.906 l -14.398,6.758 c -0.975,2.454 -1.909,4.918 -2.832,7.382 z m -1.023,16.164 c 0.006,-0.191 0.018,-0.387 0.018,-0.57 10e-4,-0.944 -0.074,-1.825 -0.074,-2.83 0,-0.023 0.003,-0.053 0.003,-0.078 l -20.318,8.554 c -0.52,1.552 -1.022,3.097 -1.523,4.644 z m -1.315,26.819 c 0.004,-0.205 0.01,-0.409 0.012,-0.615 0.031,-2.078 0.071,-4.158 0.122,-6.233 l -27.253,11.655 c -0.843,3.08 -1.637,6.112 -2.395,9.095 -0.003,0.011 -0.005,0.022 -0.007,0.033 z m -32.975,30.75 c 4.278,-2.227 14.975,-7.831 24.597,-13.159 4.812,-2.662 9.354,-5.258 12.679,-7.319 0.689,-0.427 1.311,-0.824 1.887,-1.201 l -38.231,15.285 c -0.523,2.276 -1.017,4.497 -1.487,6.685 0.177,-0.093 0.347,-0.182 0.555,-0.291 m -3.214,16.901 c 4.369,-2.454 15.296,-8.618 25.123,-14.398 4.913,-2.89 9.554,-5.684 12.956,-7.865 0.192,-0.124 0.367,-0.239 0.552,-0.359 l -38.286,17.452 c -0.356,1.906 -0.68,3.739 -0.986,5.529 0.199,-0.112 0.399,-0.225 0.641,-0.359 m 36.524,-11.988 c -0.024,-0.893 -0.046,-1.789 -0.067,-2.685 l -37.417,16.902 c -0.217,1.308 -0.417,2.577 -0.606,3.815 z m 0.347,10.714 c -0.051,-1.374 -0.097,-2.764 -0.142,-4.151 l -39.126,17.415 c -0.198,1.466 -0.393,2.928 -0.581,4.388 z m -42.072,37.355 1.724,-0.648 41.563,-15.617 c 0.691,-1.096 1.371,-2.219 1.875,-3.275 0.35,-0.728 0.598,-1.415 0.736,-2.027 l -45.446,16.988 c -0.158,1.528 -0.307,3.054 -0.452,4.579 m -1.17,-43.997 c 0.492,-2.557 1.026,-5.197 1.604,-7.918 l -34.197,-29.091 c -0.176,0.884 -0.284,1.774 -0.284,2.72 0.002,2.213 0.572,4.765 2.219,8.238 z m 44.494,33.495 c -0.076,-1.368 -0.148,-2.754 -0.221,-4.15 l -43.257,16.253 c -0.182,1.971 -0.356,3.935 -0.521,5.897 l 4.336,-1.772 z m 0.471,8.525 c -0.13,-2.279 -0.258,-4.621 -0.389,-6.995 l -38.784,15.865 -5.434,2.223 c -0.198,2.438 -0.384,4.87 -0.556,7.295 z m -46.953,46.568 v 0.043 l 49.38,-12.668 z m 25.705,37.562 1.059,-0.233 -25.565,5.309 46.585,-10.973 c -0.009,0.177 0.11,0.346 0.098,0.538 l 0.786,0.04 -19.614,4.597 1.554,-0.32 18.093,-4.277 -0.706,-0.04 c 0.012,-0.192 0.028,-0.361 0.038,-0.538 0.121,-2.059 0.184,-3.303 0.272,-5.267 l -47.943,9.287 c 0.054,2.372 0.125,4.733 0.203,7.086 l -0.282,0.052 c 0,0.028 -0.283,0.058 -0.283,0.084 v 0.023 z m -0.02,0.74 2.68,-0.561 -24.749,5.115 -3.616,0.789 v 0.02 z m 23.749,-5.69 -0.142,0.029 -0.068,0.183 -20.604,4.864 2.311,-0.485 18.49,-4.379 z m -1.208,8.667 c -0.024,0.032 0.094,0.062 0.066,0.093 l -46.993,12.705 v 0.009 l 5.897,-1.55 41.198,-11.164 c 0.049,-0.056 -0.038,-0.109 0.01,-0.166 l 1.038,-0.282 c 0.004,-0.004 -10e-4,-0.009 0.003,-0.015 l -1.162,0.297 c -0.014,0.017 -0.027,0.033 -0.038,0.05 l 0.023,0.013 z m -47.272,9.151 c 0.041,0.967 0.345,1.944 0.345,2.907 v 0.011 l 6.258,-1.647 40.205,-10.901 c 0.017,-0.02 -0.008,-0.043 0.012,-0.063 1.187,-1.399 1.718,-2.594 2.004,-3.78 0.229,-0.959 0.274,-1.938 0.326,-3.006 0.01,-0.242 0.018,-0.493 0.031,-0.747 l -0.148,0.031 c -0.028,0.243 -0.231,0.481 -0.241,0.716 l -45.605,9.522 -4.141,0.908 v 0.015 c 0,1.041 0.398,2.069 0.438,3.108 l 36.059,-7.865 z m -0.815,-54.556 c -0.039,1.142 -0.106,2.264 -0.136,3.361 l 48.027,-12.384 v -0.007 l 0.028,0.007 c 0.001,-0.954 0.021,-1.925 0.021,-2.938 0,-2.392 -0.015,-4.962 -0.135,-7.674 l -47.536,12.603 c -0.06,1.396 -0.112,2.748 -0.163,4.07 l 36.422,-8.191 z m 0.949,-15.979 47.787,-18.265 c 0.703,-1.479 1.249,-2.438 1.581,-3.277 0.354,-0.89 0.532,-1.685 0.533,-3.126 0,-0.092 0,-0.195 -0.001,-0.29 -0.004,-0.24 -0.012,-0.492 -0.026,-0.764 l -0.08,0.03 c 0.002,0.26 -0.094,0.505 -0.09,0.734 l -46.139,17.202 -3.354,1.29 v 0.013 c 0,2.157 -0.088,4.306 -0.211,6.453 m 11.697,-85.669 c 0.805,-0.373 2.058,-0.897 3.418,-1.533 4.2,-1.966 10.577,-4.982 16.16,-7.771 2.79,-1.394 5.387,-2.732 7.41,-3.851 1.01,-0.557 1.881,-1.061 2.553,-1.485 0.668,-0.42 1.155,-0.776 1.343,-0.968 1.66,-1.644 3.013,-3.368 3.944,-4.989 0.63,-1.098 1.046,-2.141 1.263,-3.076 l -2.888,1.419 -0.085,0.042 c 0.029,0.045 0.082,0.089 0.082,0.135 l -0.12,0.451 -26.723,12.502 -4.862,2.32 v 0.005 c 0,2.309 -0.972,4.566 -1.495,6.799 m 8.812,-32.137 c -0.525,1.716 -1.029,3.419 -1.531,5.12 l 24.968,-11.959 c 0.13,-0.882 0.492,-1.795 0.973,-2.759 0.852,-1.685 2.062,-3.509 3.069,-5.207 0.504,-0.848 0.954,-1.662 1.28,-2.392 0.088,-0.192 0.138,-0.359 0.205,-0.536 l -3.294,1.462 -23.285,10.336 -0.614,0.271 c -0.246,0.769 -0.478,1.529 -0.718,2.295 l 20.384,-6.778 z m 5.943,-18.103 c -0.461,1.309 -0.908,2.618 -1.355,3.925 l 20.316,-10.638 c 0.684,-1.638 1.034,-2.652 1.252,-3.634 0.175,-0.79 0.277,-1.611 0.401,-2.765 l -18.405,6.974 c -0.363,0.991 -0.715,1.978 -1.071,2.967 l 18.691,-6.217 z m 10.693,-27.216 11.075,-5.597 c 0.426,-2.457 0.889,-4.86 1.383,-7.22 l -7.436,1.86 c -1.74,3.601 -3.406,7.263 -5.022,10.957 m 15.765,-4.923 c 0.419,-0.357 0.801,-0.691 1.15,-1.006 l -17.842,8.027 c -1.031,2.399 -2.03,4.816 -3.011,7.238 2.733,-1.839 7.896,-5.357 12.637,-8.814 2.662,-1.942 5.191,-3.864 7.066,-5.445 m 13.742,-41.873 3.833,2.682 c -1.873,2.848 -3.614,6.171 -5.219,9.942 l 9.732,-1.935 -3.605,12.853 c -0.434,1.55 -0.924,3.298 -4.908,6.459 l -1.77,10.301 c -0.353,2.047 -0.696,4.027 -7.513,9.606 l -1.204,11.32 c -0.021,0.189 -0.038,0.35 -0.058,0.527 l 3.622,-1.607 -0.845,13.48 c -0.228,3.659 -2.216,6.882 -4.138,9.999 -0.593,0.965 -1.451,2.358 -1.807,3.119 -0.018,0.487 -0.031,0.98 -0.05,1.47 l 4.345,-2.135 -0.167,12.191 4.946,-1.975 -0.025,12.124 c -0.004,2.258 -0.343,3.935 -2.451,6.061 l 0.162,8.826 c 0.077,4.236 -2.373,6.665 -6.927,9.713 l 0.008,0.332 c 0,0 0.082,3.422 0.107,4.217 l 0.119,3.946 0.035,1.04 c 0,0 0.145,4.392 0.192,5.673 l 0.13,3.379 0.035,0.776 3.219,-1.204 0.544,11.205 c 0.166,3.415 -1.2,6.599 -2.836,9.456 0.033,0.608 0.071,1.272 0.107,1.961 l 3.869,-1.455 0.634,11.12 c 0.294,5.172 -0.697,7.573 -2.239,10.643 -0.229,0.455 -0.489,0.968 -0.778,1.587 l -0.207,0.443 0.437,8.512 c 0.005,0.118 0.013,0.244 0.019,0.361 l 0.1,1.927 0.217,-0.054 0.259,10.285 c 0.034,1.331 0.06,2.701 0.083,4.095 l 5.247,-0.974 0.036,9.82 c 0.009,2.377 -0.289,4.562 -0.881,6.581 l -0.206,8.425 c -0.075,3.066 -0.771,5.41 -1.33,7.295 -0.399,1.34 -0.625,2.136 -0.663,2.969 l -0.23,5.2 3.025,-0.777 -0.82,11.359 c -0.232,3.227 -0.931,6.148 -2.07,8.752 l -0.833,8.548 0.411,-0.167 -1.695,13.905 c -0.453,3.713 -1.872,8.782 -5.837,13.367 l -1.187,7.147 7.176,-3.879 -3.058,16.794 c -0.485,2.663 -1.873,6.162 -3.941,9.674 l -3.138,13.746 c -0.389,1.709 -1.075,3.742 -2.023,5.879 l 3.89,-1.957 -4.423,14.986 0.261,-0.112 -1.425,3.939 c -0.151,0.46 -0.311,0.921 -0.5,1.385 l -4.442,12.282 c 0.318,-0.159 0.615,-0.329 0.937,-0.485 2.551,-1.27 5.289,-2.486 8.183,-3.337 0.677,-0.186 1.579,-0.409 2.343,-0.528 0.781,-0.14 1.595,-0.207 2.408,-0.25 1.637,-0.041 3.376,0.177 4.981,0.887 1.598,0.698 3.015,1.857 3.922,3.239 0.928,1.369 1.477,2.863 1.744,4.323 0.528,2.925 0.221,5.743 -0.789,8.241 -0.265,0.623 -0.595,1.224 -1.005,1.786 -0.479,0.604 -0.876,0.944 -1.291,1.362 -0.874,0.837 -1.753,1.552 -2.676,2.178 -1.815,1.232 -3.907,2.05 -5.817,1.692 -1.934,-0.369 -3.003,-1.903 -3.37,-3.078 -0.402,-1.222 -0.356,-2.23 -0.292,-2.887 0.076,-0.662 0.171,-1.002 0.171,-1.002 0,0 -0.059,0.35 -0.065,1.008 0.005,0.649 0.069,1.639 0.563,2.728 0.463,1.073 1.55,2.246 3.119,2.368 1.557,0.129 3.281,-0.723 4.806,-2.013 0.767,-0.644 1.526,-1.411 2.217,-2.228 0.35,-0.426 0.772,-0.911 0.981,-1.264 0.235,-0.422 0.438,-0.896 0.592,-1.41 0.594,-2.066 0.586,-4.553 -0.09,-6.77 -0.659,-2.241 -2.144,-4.064 -4.124,-4.618 -1.957,-0.636 -4.487,-0.107 -6.741,0.799 l -0.978,0.402 -0.83,0.405 c -0.593,0.296 -1.188,0.56 -1.775,0.876 -1.174,0.67 -2.348,1.28 -3.484,2.016 -2.295,1.381 -4.499,2.911 -6.614,4.403 -1.35,0.961 -2.643,1.918 -3.907,2.868 -0.574,0.689 -1.151,1.353 -1.73,1.98 0.039,-0.007 0.074,-0.013 0.115,-0.02 1.854,-0.249 3.803,-0.412 5.829,-0.369 1.017,0.046 2.043,0.103 3.095,0.302 0.534,0.092 1.021,0.206 1.6,0.37 0.448,0.138 0.895,0.274 1.456,0.504 2.032,0.782 4.013,2.192 5.068,4.28 1.071,2.073 0.974,4.388 0.42,6.262 -0.575,1.901 -1.562,3.541 -2.884,4.794 -0.68,0.602 -1.435,1.165 -2.421,1.356 -0.903,0.118 -1.612,0.086 -2.387,0.035 -1.492,-0.121 -2.884,-0.538 -3.876,-1.332 -1.023,-0.778 -1.385,-2.001 -1.213,-2.857 0.155,-0.874 0.577,-1.43 0.857,-1.773 0.293,-0.343 0.475,-0.498 0.475,-0.498 0,0 -0.165,0.177 -0.41,0.546 -0.235,0.366 -0.573,0.96 -0.613,1.755 -0.052,0.788 0.365,1.737 1.293,2.288 0.909,0.566 2.166,0.797 3.52,0.746 0.65,-0.025 1.438,-0.111 2.049,-0.262 0.53,-0.152 1.087,-0.616 1.563,-1.148 0.955,-1.1 1.662,-2.602 1.952,-4.161 0.292,-1.556 0.125,-3.206 -0.695,-4.423 -0.785,-1.224 -2.195,-2.058 -3.748,-2.482 -0.33,-0.107 -0.806,-0.205 -1.281,-0.301 -0.342,-0.055 -0.793,-0.121 -1.199,-0.146 -0.829,-0.079 -1.697,-0.041 -2.552,0.004 -1.725,0.132 -3.448,0.44 -5.102,0.83 -3.3,0.792 -6.343,1.879 -8.915,2.891 -0.13,0.098 -0.268,0.206 -0.385,0.296 l -1.766,1.383 c 0.287,0.123 0.573,0.238 0.863,0.372 1.101,0.515 2.225,1.111 3.318,1.848 0.542,0.383 1.084,0.773 1.589,1.252 0.261,0.238 0.488,0.47 0.748,0.764 0.195,0.234 0.393,0.465 0.618,0.788 0.837,1.142 1.427,2.61 1.273,4.123 -0.142,1.513 -1.006,2.746 -1.97,3.578 -0.982,0.838 -2.098,1.391 -3.262,1.612 -0.429,0.068 -0.871,0.107 -1.317,0.029 l 15.585,63.109 -28.898,-74.151 c -0.345,0.285 -0.705,0.585 -1.082,0.911 -1.363,1.183 -2.914,2.616 -4.372,4.289 -0.722,0.838 -1.419,1.737 -2.014,2.692 -0.283,0.481 -0.566,0.969 -0.771,1.471 -0.107,0.241 -0.204,0.522 -0.276,0.735 -0.087,0.304 -0.174,0.607 -0.212,0.829 -0.224,1.023 -0.167,2.089 0.302,2.911 0.454,0.838 1.354,1.432 2.34,1.732 0.987,0.302 2.065,0.349 2.987,0.131 0.45,-0.113 0.884,-0.297 1.134,-0.556 0.247,-0.283 0.575,-0.767 0.766,-1.106 0.439,-0.757 0.685,-1.556 0.626,-2.25 -0.025,-0.706 -0.463,-1.219 -0.923,-1.437 -0.47,-0.224 -0.914,-0.184 -1.196,-0.175 -0.287,0.045 -0.44,0.07 -0.44,0.07 0,0 0.151,-0.042 0.432,-0.123 0.282,-0.039 0.729,-0.142 1.279,0.041 0.536,0.17 1.15,0.736 1.277,1.562 0.165,0.811 -0.013,1.738 -0.399,2.638 -0.221,0.492 -0.384,0.85 -0.736,1.366 -0.409,0.51 -0.96,0.775 -1.511,0.985 -1.122,0.383 -2.366,0.459 -3.632,0.216 -1.249,-0.243 -2.613,-0.886 -3.486,-2.13 -0.884,-1.237 -1.101,-2.804 -0.939,-4.21 0.035,-0.393 0.093,-0.691 0.147,-0.991 0.081,-0.385 0.162,-0.699 0.271,-1.036 0.199,-0.664 0.475,-1.274 0.755,-1.874 0.584,-1.181 1.267,-2.256 1.969,-3.251 1.413,-1.982 2.905,-3.653 4.223,-5.042 0.144,-0.15 0.277,-0.286 0.418,-0.43 -0.013,-0.003 -0.024,-0.007 -0.035,-0.011 -0.497,-0.088 -1.034,-0.192 -1.592,-0.306 -0.889,-0.043 -1.826,-0.083 -2.852,-0.103 -2.773,-0.051 -6.018,-0.004 -9.405,0.411 -1.688,0.213 -3.408,0.526 -5.07,1.006 -0.817,0.258 -1.643,0.526 -2.394,0.89 -0.371,0.164 -0.766,0.385 -1.071,0.557 -0.412,0.255 -0.821,0.514 -1.095,0.731 -1.306,0.938 -2.335,2.214 -2.643,3.634 -0.342,1.425 0.079,3.031 0.896,4.387 0.818,1.359 2.005,2.519 3.283,3.216 0.633,0.331 1.319,0.571 1.867,0.528 0.624,-0.072 1.394,-0.268 2.011,-0.474 1.285,-0.424 2.383,-1.08 3.036,-1.928 0.677,-0.841 0.738,-1.874 0.412,-2.595 -0.317,-0.731 -0.84,-1.17 -1.188,-1.429 -0.359,-0.262 -0.575,-0.37 -0.575,-0.37 0,0 0.224,0.081 0.62,0.301 0.382,0.224 0.974,0.596 1.421,1.36 0.461,0.744 0.55,2.016 -0.136,3.101 -0.651,1.092 -1.811,1.969 -3.165,2.606 -0.708,0.319 -1.36,0.597 -2.249,0.8 -0.991,0.168 -1.894,-0.094 -2.741,-0.422 -1.677,-0.71 -3.177,-1.903 -4.378,-3.482 -1.177,-1.562 -2.077,-3.696 -1.799,-6.014 0.258,-2.325 1.621,-4.34 3.251,-5.781 0.444,-0.412 0.818,-0.697 1.188,-0.984 0.484,-0.355 0.902,-0.632 1.371,-0.905 0.914,-0.555 1.855,-0.967 2.793,-1.365 1.752,-0.698 3.504,-1.201 5.213,-1.602 -2.048,-0.769 -4.159,-1.645 -6.288,-2.628 -0.068,-0.017 -0.132,-0.037 -0.199,-0.055 -2.503,-0.657 -5.103,-1.321 -7.735,-1.813 -1.324,-0.29 -2.638,-0.451 -3.97,-0.668 -0.662,-0.09 -1.311,-0.131 -1.971,-0.2 l -0.919,-0.091 -1.055,-0.033 c -2.428,-0.059 -4.985,0.331 -6.596,1.61 -1.661,1.21 -2.414,3.438 -2.248,5.769 0.143,2.313 1.006,4.645 2.286,6.374 0.323,0.429 0.679,0.801 1.048,1.114 0.319,0.258 0.884,0.564 1.36,0.841 0.933,0.524 1.913,0.976 2.857,1.311 1.88,0.676 3.793,0.87 5.206,0.202 1.426,-0.66 2.035,-2.14 2.093,-3.306 0.081,-1.194 -0.203,-2.145 -0.426,-2.754 -0.236,-0.614 -0.414,-0.922 -0.414,-0.922 0,0 0.21,0.286 0.511,0.88 0.289,0.591 0.685,1.522 0.735,2.804 0.069,1.231 -0.396,3.043 -2.079,4.065 -1.663,1.003 -3.911,0.969 -6.041,0.45 -1.082,-0.262 -2.158,-0.626 -3.268,-1.105 -0.535,-0.247 -1.027,-0.424 -1.687,-0.823 -0.579,-0.383 -1.101,-0.832 -1.566,-1.322 -1.82,-1.988 -3.095,-4.52 -3.625,-7.445 -0.258,-1.46 -0.268,-3.051 0.123,-4.66 0.367,-1.61 1.288,-3.193 2.541,-4.407 1.258,-1.227 2.809,-2.039 4.356,-2.572 0.777,-0.245 1.561,-0.466 2.345,-0.607 0.757,-0.158 1.68,-0.265 2.378,-0.327 0.903,-0.065 1.803,-0.084 2.698,-0.085 -2.463,-1.837 -4.798,-3.858 -6.904,-6.091 l -18.203,-19.391 13.392,2.906 c -0.415,-0.565 -0.825,-1.125 -1.246,-1.72 l -3.671,-5.195 -2.145,-1.002 -0.703,-0.535 c -3.973,-3.029 -7.057,-5.638 -10.58,-11.672 l -11.785,-20.195 5.7,2.202 c -0.249,-0.59 -0.504,-1.2 -0.767,-1.857 l -7.714,-19.267 2.025,0.948 c -0.878,-2.606 -1.626,-5.425 -2.504,-9.763 l -3.806,-18.801 6.024,3.807 -0.369,-4.112 c -2.022,-5.711 -3.274,-10.067 -3.397,-13.386 l -0.159,-4.318 c -1.34,-2.64 -2.205,-5.665 -2.188,-9.746 l 0.061,-16.929 1.285,1.027 0.562,-15.96 2.492,2.02 c -1.864,-4.195 -2.452,-8.904 -1.782,-14.465 l 1.855,-15.42 1.337,1.173 c 0.06,-0.926 0.144,-1.825 0.275,-2.666 l 2.065,-13.131 -2.07,-2.387 1.423,-4.399 c 0.543,-1.683 0.543,-1.683 1.643,-6.172 l 3.345,-13.649 2.378,2.24 c 0.252,-1.101 0.608,-2.424 1.314,-4.775 l 1.753,-5.621 -1.18,-1.54 v -2.889 c 0,-4.077 -1.729,-10.914 -0.969,-12.632 0.093,-0.21 3.886,3.237 3.954,3.061 l 4.087,-12.345 2.129,2.085 0.469,-1.25 c 0.517,-1.37 0.732,-2.084 0.961,-2.842 0.344,-1.133 0.696,-2.301 1.663,-4.63 l 3.275,-7.888 c -0.119,-2.387 0.081,-4.908 1.177,-7.318 l 4.203,-9.246 0.958,0.714 c 0.049,-0.202 0.079,-0.4 0.132,-0.604 l 3.298,-12.623 2.089,1.776 c 0.318,-0.744 0.696,-1.516 1.139,-2.329 l 4.936,-9.041 1.532,1.361 c 0.106,-0.191 0.187,-0.367 0.302,-0.562 l 5.137,-8.725 2.611,2.399 c 0.519,-0.835 1.058,-1.698 1.63,-2.609 l 1.736,-2.759 c -1.655,-4.834 -1.296,-7.836 0.605,-10.623 l 5.485,-8.036 c 0.366,-0.726 0.792,-1.43 1.28,-2.102 l 0.731,-1.006 c -0.63,-3.501 0.064,-7.12 2.094,-9.849 l 5.962,-8.004 2.987,3.305 3.502,-4.353 1.807,1.763 c 0.536,-0.838 1.132,-1.679 1.867,-2.536 l 5.781,-6.756 2.646,2.667 c 0.484,-0.54 0.952,-1.071 1.445,-1.613 l 0.001,-0.003 c -1.113,-5.773 0.458,-8.317 2.369,-10.305 l 5.732,-5.96 0.705,0.69 3.035,-8.417 1.906,2.045 0.034,-0.034 7.022,-6.732 3.163,4.689 c 4.618,-4.23 9.18,-8.203 13.803,-11.99 l 27.775,-22.749 c -0.917,0.939 -18.54,36.818 -19.435,37.987"
           style="fill:#000000;fill-opacity:1;fill-rule:nonzero;stroke:none"
           id="path60438" /><path
           d="m 417.025,460.378 6.209,-4.138 c -0.826,3.167 -1.662,6.183 -2.5,9.029 l -16.037,8.997 c -0.306,-1.67 -0.612,-3.35 -0.914,-5.059 z"
           style="fill:#8cc63f;fill-opacity:1;fill-rule:nonzero;stroke:none"
           id="path60440" /><path
           d="m 406.764,485.076 14.756,-6.286 c -1.696,3.841 -4.261,7.113 -6.784,9.71 -1.286,1.32 -2.548,2.455 -3.685,3.415 -0.886,0.598 -1.728,1.171 -2.525,1.72 -0.591,-2.777 -1.178,-5.628 -1.762,-8.559"
           style="fill:#8cc63f;fill-opacity:1;fill-rule:nonzero;stroke:none"
           id="path60442" /><path
           d="m 426.581,464.933 c -1.564,3.539 -4.682,7.141 -7.454,9.9 l -12.689,8.597 c -0.491,-2.496 -0.979,-5.036 -1.462,-7.637 z"
           style="fill:#8cc63f;fill-opacity:1;fill-rule:nonzero;stroke:none"
           id="path60444" /><path
           d="m 402.171,459.719 25.285,-14.653 0.029,-0.124 2.578,-1.505 c -1.077,3.249 -3.303,7.531 -6.133,10.603 l -20.419,13.61 c -0.453,-2.602 -0.901,-5.244 -1.34,-7.931"
           style="fill:#ffffff;fill-opacity:1;fill-rule:nonzero;stroke:none"
           id="path60446" /><path
           d="m 401.524,455.71 22.162,-15.372 -22.633,12.363 c -0.168,-1.078 -0.335,-2.16 -0.5,-3.253 l 27.683,-14.814 c -0.662,3.218 -1.337,6.353 -2.024,9.376 l -24.29,14.178 c -0.134,-0.822 -0.265,-1.649 -0.398,-2.478"
           style="fill:#ffffff;fill-opacity:1;fill-rule:nonzero;stroke:none"
           id="path60448" /><path
           d="m 399.287,440.737 32.617,-17.382 0.053,-0.286 5.182,-2.801 c -0.491,1.496 -1.324,3.332 -2.432,5.201 -1.521,2.573 -3.557,5.213 -5.869,7.205 l -28.513,15.256 c -0.352,-2.373 -0.701,-4.765 -1.038,-7.193"
           style="fill:#ffffff;fill-opacity:1;fill-rule:nonzero;stroke:none"
           id="path60450" /><path
           d="m 398.337,433.742 33.467,-18.183 c -0.375,2.22 -0.758,4.412 -1.149,6.57 l -31.579,17.075 c -0.25,-1.809 -0.497,-3.624 -0.739,-5.462"
           style="fill:#ffffff;fill-opacity:1;fill-rule:nonzero;stroke:none"
           id="path60452" /><path
           d="m 428.488,400.425 6.032,-2.59 c -0.354,2.554 -0.715,5.089 -1.092,7.583 l -36.465,17.16 c -0.317,-2.716 -0.626,-5.451 -0.919,-8.221 z"
           style="fill:#8cc63f;fill-opacity:1;fill-rule:nonzero;stroke:none"
           id="path60454" /><path
           d="m 395.159,405.611 45.017,-18.564 c -0.531,2.728 -1.871,6.141 -5.158,9.001 l -39.132,16.803 c -0.25,-2.397 -0.495,-4.806 -0.727,-7.24"
           style="fill:#8cc63f;fill-opacity:1;fill-rule:nonzero;stroke:none"
           id="path60456" /><path
           d="m 441.371,373.493 c -0.2,0.572 -0.5,1.116 -0.965,1.748 -0.734,0.996 -1.851,2.185 -3.331,3.881 l -42.739,17.264 c -0.205,-2.46 -0.404,-4.931 -0.588,-7.425 z"
           style="fill:#8cc63f;fill-opacity:1;fill-rule:nonzero;stroke:none"
           id="path60458" /><path
           d="m 437.992,367.581 c -0.138,1.564 -0.241,2.618 -0.405,4.305 l -43.948,15.566 c -0.176,-2.453 -0.345,-4.918 -0.499,-7.402 z"
           style="fill:#8cc63f;fill-opacity:1;fill-rule:nonzero;stroke:none"
           id="path60460" /><path
           d="m 426.713,364.458 -34.032,7.449 c -0.041,-0.797 -0.091,-1.583 -0.131,-2.385 l 51.878,-13.318 c -0.292,2.59 -1.123,5.835 -3.712,8.484 l -47.666,13.876 c -0.079,-1.29 -0.144,-2.598 -0.216,-3.895 z"
           style="fill:#8cc63f;fill-opacity:1;fill-rule:nonzero;stroke:none"
           id="path60462" /><path
           d="m 392.36,365.131 35.799,-10.791 -35.92,7.864 c -0.042,-1.038 -0.093,-2.066 -0.129,-3.108 l 49.474,-10.444 c -0.052,1.067 -0.106,2.046 -0.334,3.005 -0.285,1.187 -0.837,2.382 -2.024,3.781 l -46.747,12.599 c -0.044,-0.963 -0.078,-1.939 -0.119,-2.906"
           style="fill:#8cc63f;fill-opacity:1;fill-rule:nonzero;stroke:none"
           id="path60464" /><path
           d="m 439.801,341.1 c -0.089,1.964 -0.149,3.206 -0.268,5.266 l -47.472,11.243 c -0.081,-2.397 -0.151,-4.804 -0.207,-7.224 z"
           style="fill:#8cc63f;fill-opacity:1;fill-rule:nonzero;stroke:none"
           id="path60466" /><path
           d="m 391.824,348.918 c -0.022,-1.04 -0.028,-2.09 -0.046,-3.135 l 42.311,-9.866 -42.352,7.059 c -0.016,-1.275 -0.047,-2.541 -0.056,-3.823 l 52.772,-8.696 c -0.135,1.435 -0.48,2.695 -0.867,3.993 -0.416,1.402 -0.847,2.883 -0.996,4.637 l -1.264,0.246 0.002,-0.074 z"
           style="fill:#8cc63f;fill-opacity:1;fill-rule:nonzero;stroke:none"
           id="path60468" /><path
           d="m 441.328,339.259 -0.002,0.074 -49.501,9.586 v -0.002 z"
           style="fill:#8cc63f;fill-opacity:1;fill-rule:nonzero;stroke:none"
           id="path60470" /><path
           d="m 442.001,323.606 -49.673,11.407 c -0.018,-2.508 -0.04,-3.77 -0.04,-5.28 0,-1.067 0.011,-2.274 0.038,-4.143 l 53.24,-9.897 c -0.091,2.026 -0.497,3.576 -1.097,4.79 -0.654,1.314 -1.522,2.279 -2.468,3.123"
           style="fill:#8cc63f;fill-opacity:1;fill-rule:nonzero;stroke:none"
           id="path60472" /><path
           d="m 439.584,301.552 -48.06,12.421 c 0.03,-1.109 0.067,-2.244 0.106,-3.398 l 36.529,-11.153 -36.422,8.191 c 0.051,-1.322 0.106,-2.674 0.168,-4.07 l 47.537,-12.603 c 0.121,2.712 0.146,5.282 0.146,7.674 0,1.013 -0.004,1.984 -0.004,2.938"
           style="fill:#ffffff;fill-opacity:1;fill-rule:nonzero;stroke:none"
           id="path60474" /><path
           d="m 442.48,269.636 c 10e-4,0.097 0.005,0.2 0.005,0.293 -0.004,1.44 -0.178,2.235 -0.529,3.126 -0.334,0.837 -0.871,1.797 -1.575,3.274 l -47.614,18.267 c 0.123,-2.148 0.254,-4.296 0.398,-6.451 z"
           style="fill:#8cc63f;fill-opacity:1;fill-rule:nonzero;stroke:none"
           id="path60476" /><path
           d="m 440.341,196.65 c -3.326,2.061 -7.868,4.657 -12.68,7.319 -9.622,5.328 -20.319,10.932 -24.597,13.159 -0.207,0.109 -0.378,0.198 -0.556,0.289 0.471,-2.186 0.965,-4.407 1.489,-6.683 l 38.23,-15.285 c -0.576,0.377 -1.198,0.774 -1.886,1.201"
           style="fill:#ffffff;fill-opacity:1;fill-rule:nonzero;stroke:none"
           id="path60478" /><path
           d="m 399.271,277.003 38.784,-15.865 c 0.13,2.374 0.259,4.716 0.389,6.995 l -45.163,18.388 c 0.17,-2.424 0.358,-4.857 0.556,-7.293 z"
           style="fill:#8cc63f;fill-opacity:1;fill-rule:nonzero;stroke:none"
           id="path60480" /><path
           d="m 393.974,277.608 c 0.166,-1.962 0.339,-3.928 0.521,-5.895 l 43.257,-16.255 c 0.072,1.396 0.147,2.782 0.221,4.15 l -39.663,16.227 z"
           style="fill:#8cc63f;fill-opacity:1;fill-rule:nonzero;stroke:none"
           id="path60482" /><path
           d="m 393.974,277.608 v 0 l 4.336,-1.773 z"
           style="fill:#8cc63f;fill-opacity:1;fill-rule:nonzero;stroke:none"
           id="path60484" /><path
           d="m 396.87,250.407 c 0.191,-1.46 0.385,-2.922 0.583,-4.388 l 39.126,-17.415 c 0.045,1.387 0.089,2.777 0.142,4.151 z"
           style="fill:#8cc63f;fill-opacity:1;fill-rule:nonzero;stroke:none"
           id="path60486" /><path
           d="m 436.375,222.041 -38.093,18.032 c 0.191,-1.239 0.392,-2.507 0.608,-3.815 l 37.416,-16.902 c 0.022,0.896 0.044,1.79 0.069,2.685"
           style="fill:#8cc63f;fill-opacity:1;fill-rule:nonzero;stroke:none"
           id="path60488" /><path
           d="m 424.974,219.631 c -9.828,5.78 -20.755,11.944 -25.124,14.398 -0.241,0.134 -0.442,0.247 -0.641,0.359 0.306,-1.79 0.63,-3.623 0.986,-5.529 l 38.286,-17.452 c -0.185,0.12 -0.36,0.235 -0.554,0.359 -3.4,2.181 -8.041,4.975 -12.953,7.865"
           style="fill:#8cc63f;fill-opacity:1;fill-rule:nonzero;stroke:none"
           id="path60490" /><path
           d="m 395.102,265.531 45.445,-16.988 c -0.138,0.612 -0.386,1.299 -0.737,2.027 -0.503,1.056 -1.184,2.179 -1.872,3.275 l -41.566,15.617 -1.724,0.648 c 0.147,-1.525 0.296,-3.051 0.454,-4.579"
           style="fill:#8cc63f;fill-opacity:1;fill-rule:nonzero;stroke:none"
           id="path60492" /><path
           d="m 396.373,269.462 -1.724,0.648 z"
           style="fill:#8cc63f;fill-opacity:1;fill-rule:nonzero;stroke:none"
           id="path60494" /><path
           d="m 437.476,186.85 c 0,-0.06 0.003,-0.119 0.003,-0.177 l 2.887,-1.419 c -0.217,0.935 -0.63,1.978 -1.262,3.076 -0.93,1.621 -2.283,3.345 -3.944,4.989 -0.186,0.191 -0.672,0.548 -1.342,0.967 -0.672,0.425 -1.54,0.929 -2.55,1.486 -2.022,1.119 -4.617,2.457 -7.409,3.851 -5.582,2.789 -11.95,5.805 -16.15,7.771 -1.361,0.636 -2.484,1.16 -3.289,1.533 0.52,-2.233 1.06,-4.492 1.636,-6.799 l 31.414,-14.827 z"
           style="fill:#ffffff;fill-opacity:1;fill-rule:nonzero;stroke:none"
           id="path60496" /><path
           d="m 406.525,200.28 c 0.757,-2.985 1.552,-6.015 2.395,-9.096 l 27.254,-11.654 c -0.052,2.075 -0.092,4.155 -0.123,6.233 z"
           style="fill:#ffffff;fill-opacity:1;fill-rule:nonzero;stroke:none"
           id="path60498" /><path
           d="m 438.758,160.519 v 0 l 3.294,-1.463 c -0.067,0.178 -0.117,0.345 -0.205,0.537 -0.326,0.73 -0.776,1.544 -1.281,2.392 -1.004,1.698 -2.218,3.522 -3.068,5.207 -0.481,0.964 -0.843,1.877 -0.973,2.759 l -24.968,11.958 c 0.501,-1.7 1.006,-3.403 1.53,-5.119 l 21.438,-10.147 -20.383,6.778 c 0.239,-0.766 0.471,-1.526 0.717,-2.295 l 0.612,-0.271 z"
           style="fill:#8cc63f;fill-opacity:1;fill-rule:nonzero;stroke:none"
           id="path60500" /><path
           d="m 437.298,156.159 c 0,1.005 0.074,1.886 0.074,2.83 0,0.183 -0.012,0.379 -0.018,0.57 l -21.894,9.719 c 0.501,-1.546 1.003,-3.091 1.523,-4.643 l 20.318,-8.554 c 0,0.025 -0.003,0.054 -0.003,0.078"
           style="fill:#8cc63f;fill-opacity:1;fill-rule:nonzero;stroke:none"
           id="path60502" /><path
           d="m 439.244,148.34 c -0.217,0.982 -0.569,1.996 -1.252,3.634 l -20.316,10.638 c 0.446,-1.307 0.894,-2.616 1.355,-3.925 l 19.83,-9.388 -18.692,6.217 c 0.357,-0.989 0.706,-1.978 1.071,-2.967 l 18.404,-6.974 c -0.123,1.154 -0.225,1.975 -0.4,2.765"
           style="fill:#8cc63f;fill-opacity:1;fill-rule:nonzero;stroke:none"
           id="path60504" /><path
           d="m 438.378,143.395 -16.407,7.234 c 0.923,-2.464 1.858,-4.928 2.832,-7.382 l 14.398,-6.758 c -0.297,2.275 -0.573,4.576 -0.823,6.906"
           style="fill:#8cc63f;fill-opacity:1;fill-rule:nonzero;stroke:none"
           id="path60506" /><path
           d="m 445.487,126.547 c -1.873,1.582 -4.402,3.504 -7.064,5.446 -4.741,3.457 -9.904,6.975 -12.637,8.814 0.981,-2.422 1.98,-4.839 3.011,-7.238 l 17.842,-8.027 c -0.349,0.315 -0.731,0.649 -1.152,1.005"
           style="fill:#8cc63f;fill-opacity:1;fill-rule:nonzero;stroke:none"
           id="path60508" /><path
           d="m 440.799,125.874 -11.075,5.595 c 1.616,-3.692 3.282,-7.354 5.021,-10.955 l 7.438,-1.861 c -0.495,2.361 -0.958,4.764 -1.384,7.221"
           style="fill:#8cc63f;fill-opacity:1;fill-rule:nonzero;stroke:none"
           id="path60510" /><path
           d="m 454.237,107.108 c -0.437,0.38 -0.982,0.805 -1.605,1.256 -1.654,1.199 -3.858,2.588 -6.164,3.956 -3.948,2.346 -8.191,4.631 -10.595,5.905 1.381,-2.806 2.792,-5.586 4.25,-8.309 z"
           style="fill:#8cc63f;fill-opacity:1;fill-rule:nonzero;stroke:none"
           id="path60512" /><path
           d="m 449.85,93.339 c -1.867,4.318 -3.5,9.02 -4.929,14.047 l -3.884,0.845 c 2.801,-5.143 5.737,-10.128 8.813,-14.892"
           style="fill:#8cc63f;fill-opacity:1;fill-rule:nonzero;stroke:none"
           id="path60514" /><path
           d="m 328.362,295.996 c 0,-0.775 0.035,-1.509 0.092,-2.209 l 56.183,56.92 c 0.079,3.379 0.197,6.725 0.322,10.06 L 330.236,308.06 c -1.197,-3.756 -1.876,-8.273 -1.874,-12.064"
           style="fill:#8cc63f;fill-opacity:1;fill-rule:nonzero;stroke:none"
           id="path60516" /><path
           d="m 395.324,494.169 c -2.853,-0.669 -6.436,-1.7 -10.293,-3.148 -7.005,-2.632 -14.88,-6.666 -20.934,-12.334 l 35.697,7.818 c 0.575,2.847 1.152,5.644 1.731,8.349 -0.178,0.115 -0.348,0.209 -0.509,0.276 -0.923,-0.025 -2.99,-0.324 -5.692,-0.961"
           style="fill:#8cc63f;fill-opacity:1;fill-rule:nonzero;stroke:none"
           id="path60518" /><path
           d="m 371.807,474.571 c -6.142,-2.891 -9.882,-6.535 -15.356,-14.272 l 34.735,12.325 6.849,3.193 0.471,0.219 c 0.242,1.302 0.486,2.595 0.731,3.875 l -28.243,-10.53 28.87,13.747 c 0.13,0.667 0.262,1.341 0.392,1.999 l -4.024,-0.881 z"
           style="fill:#8cc63f;fill-opacity:1;fill-rule:nonzero;stroke:none"
           id="path60520" /><path
           d="m 396.232,484.245 4.024,0.881 c 0.053,0.255 0.101,0.52 0.152,0.773 z"
           style="fill:#8cc63f;fill-opacity:1;fill-rule:nonzero;stroke:none"
           id="path60522" /><path
           d="m 341.496,443.958 54.288,20.959 c 0.524,3.058 1.056,6.059 1.596,9.001 l -48.791,-22.75 c -3.033,-2.32 -4.913,-3.902 -7.093,-7.21"
           style="fill:#8cc63f;fill-opacity:1;fill-rule:nonzero;stroke:none"
           id="path60524" /><path
           d="m 334.801,425.186 59.013,27.636 c 0.542,3.493 1.099,6.918 1.665,10.279 l -53.307,-26.962 c -3.32,-3.656 -4.806,-4.946 -7.371,-10.953"
           style="fill:#ffffff;fill-opacity:1;fill-rule:nonzero;stroke:none"
           id="path60526" /><path
           d="m 331.403,414.864 c -3.034,-7.578 -4.083,-9.531 -5.754,-17.787 l 66.928,42.302 c 0.211,1.532 0.428,3.042 0.647,4.555 l -45.534,-25.095 46.028,28.494 c 0.204,1.388 0.41,2.771 0.621,4.139 l -6.217,-2.911 z"
           style="fill:#8cc63f;fill-opacity:1;fill-rule:nonzero;stroke:none"
           id="path60528" /><path
           d="m 388.123,448.561 6.216,2.911 c 0.043,0.283 0.085,0.576 0.129,0.859 z"
           style="fill:#8cc63f;fill-opacity:1;fill-rule:nonzero;stroke:none"
           id="path60530" /><path
           d="m 324.26,365.907 51.458,39.686 13.582,11.389 0.58,0.487 c 0.374,3.396 0.759,6.769 1.167,10.079 l -62.903,-48.036 c -0.052,-0.579 -3.715,-9.066 -3.884,-13.605"
           style="fill:#8cc63f;fill-opacity:1;fill-rule:nonzero;stroke:none"
           id="path60532" /><path
           d="m 323.879,357.921 c -0.649,-1.274 -1.034,-2.543 -1.175,-4.192 l 65.245,51.997 c 0.289,3.027 0.594,6.027 0.91,8.999 l -61.126,-51.248 c -1.747,-2.297 -3.031,-3.942 -3.854,-5.556"
           style="fill:#8cc63f;fill-opacity:1;fill-rule:nonzero;stroke:none"
           id="path60534" /><path
           d="m 323.949,338.506 62.615,50.759 c 0.095,1.276 0.199,2.537 0.299,3.807 l -36.643,-27.707 36.932,31.389 c 0.192,2.307 0.397,4.59 0.608,6.865 l -62.436,-54.69 c -0.809,-2.731 -1.345,-6.905 -1.375,-10.423"
           style="fill:#8cc63f;fill-opacity:1;fill-rule:nonzero;stroke:none"
           id="path60536" /><path
           d="m 328.429,331.366 c 0,-1.097 0.037,-2.19 0.106,-3.418 l 57.067,46.486 c 0.084,1.495 0.177,2.979 0.266,4.465 l -37.094,-27.986 37.323,31.623 c 0.102,1.575 0.213,3.138 0.324,4.701 l -57.637,-49.053 c -0.239,-2.862 -0.355,-4.862 -0.355,-6.818"
           style="fill:#8cc63f;fill-opacity:1;fill-rule:nonzero;stroke:none"
           id="path60538" /><path
           d="m 324.982,312.192 c 0,-0.604 0.032,-1.24 0.081,-1.897 l 59.967,52.565 c 0.128,3.211 0.289,6.381 0.46,9.535 l -57.247,-50.439 c -2.18,-2.763 -3.252,-5.698 -3.261,-9.764"
           style="fill:#8cc63f;fill-opacity:1;fill-rule:nonzero;stroke:none"
           id="path60540" /><path
           d="m 331.235,268.162 53.378,50.247 c -0.05,2.319 -0.089,4.632 -0.118,6.939 l -33.193,-34.009 33.159,37.977 c -0.012,1.66 -0.03,3.324 -0.03,4.976 0,0.671 0.006,1.339 0.007,2.008 l -54.603,-62.935 c 0.469,-1.452 0.591,-1.905 1.4,-5.203"
           style="fill:#ffffff;fill-opacity:1;fill-rule:nonzero;stroke:none"
           id="path60542" /><path
           d="m 339.198,238.604 c 0,-3.131 0.517,-5.496 0.995,-6.924 l 47.125,47.615 c -0.207,2.451 -0.371,4.576 -0.514,6.61 l -29.622,-32.124 29.363,36.058 c -0.118,1.904 -0.229,3.886 -0.349,6.099 l -3.441,-3.264 z"
           style="fill:#8cc63f;fill-opacity:1;fill-rule:nonzero;stroke:none"
           id="path60544" /><path
           d="m 359.252,241.309 28.199,28.347 c -0.18,1.871 -0.348,3.739 -0.511,5.606 l -39.65,-41.174 c 1.022,-2.999 1.408,-4.158 2.432,-6.886 L 388.348,261 c -0.191,1.715 -0.364,3.427 -0.539,5.139 z"
           style="fill:#8cc63f;fill-opacity:1;fill-rule:nonzero;stroke:none"
           id="path60546" /><path
           d="m 359.252,225.972 29.874,27.719 0.099,-0.116 c -0.232,1.864 -0.452,3.727 -0.664,5.587 l -39.91,-38.932 c 0.567,-1.53 0.821,-2.407 1.073,-3.232 0.224,-0.737 0.454,-1.456 0.926,-2.649 l 39.684,30.809 c -0.243,1.747 -0.47,3.492 -0.697,5.237 z"
           style="fill:#8cc63f;fill-opacity:1;fill-rule:nonzero;stroke:none"
           id="path60548" /><path
           d="m 359.252,207.622 32.437,28.44 c -0.334,2.013 -0.641,3.967 -0.91,5.812 -0.075,0.515 -0.14,1.021 -0.208,1.529 L 355.52,212.299 c 0.224,-0.744 0.309,-1.546 0.31,-2.384 -10e-4,-1.45 -0.235,-3.017 -0.461,-4.56 -0.227,-1.542 -0.446,-3.059 -0.445,-4.358 0,-0.579 0.051,-1.103 0.147,-1.573 l 38.086,28.349 c -0.329,1.749 -0.635,3.445 -0.924,5.104 z"
           style="fill:#8cc63f;fill-opacity:1;fill-rule:nonzero;stroke:none"
           id="path60550" /><path
           d="m 360.604,191.824 c 0,-0.947 0.106,-1.836 0.283,-2.72 l 34.196,29.091 c -0.578,2.721 -1.112,5.361 -1.604,7.918 l -30.656,-26.051 c -1.649,-3.473 -2.219,-6.025 -2.219,-8.238"
           style="fill:#8cc63f;fill-opacity:1;fill-rule:nonzero;stroke:none"
           id="path60552" /><path
           d="m 397.466,210.778 -23.039,-19.987 22.349,23.053 c -0.244,1.1 -0.491,2.203 -0.722,3.28 l -6.032,-5.131 -23.906,-24.213 c -1.859,-6.363 -1.879,-7.657 0.122,-11.319 l 19.699,17.504 12.612,12.2 c -0.374,1.556 -0.735,3.092 -1.083,4.613"
           style="fill:#8cc63f;fill-opacity:1;fill-rule:nonzero;stroke:none"
           id="path60554" /><path
           d="m 395.878,217.923 -5.856,-5.93 6.032,5.131 c -0.057,0.263 -0.12,0.538 -0.176,0.799"
           style="fill:#8cc63f;fill-opacity:1;fill-rule:nonzero;stroke:none"
           id="path60556" /><path
           d="m 399.071,201.007 c -0.249,0.989 -0.492,1.971 -0.73,2.947 L 371.758,178.24 c 0,-0.534 -0.002,-1.038 -0.002,-1.497 0,-1.91 0.029,-3.209 0.255,-4.347 0.181,-0.914 0.495,-1.759 1.038,-2.791 l 27.58,25.336 c -0.272,1.029 -0.529,2.041 -0.791,3.058 l -22.522,-18.77 z"
           style="fill:#8cc63f;fill-opacity:1;fill-rule:nonzero;stroke:none"
           id="path60558" /><path
           d="m 404.12,184.865 c -1.057,2.919 -2.603,4.05 -3.452,7.252 l -26.241,-26.819 c 1.73,-2.939 7.703,-5.579 7.703,-5.579 l 19.231,20.958 c 1.494,2.298 2.45,3.726 2.452,3.729 z"
           style="fill:#8cc63f;fill-opacity:1;fill-rule:nonzero;stroke:none"
           id="path60560" /><path
           d="m 396.771,170.758 c -4.362,-7.038 -9.215,-15.356 -11.114,-20.25 -0.299,-0.768 -0.512,-1.441 -0.651,-2.002 l 21.789,25.11 c -0.912,2.918 -1.791,5.821 -2.636,8.697 -0.418,-0.633 -0.967,-1.471 -1.629,-2.489 -1.515,-2.333 -3.577,-5.544 -5.759,-9.066"
           style="fill:#ffffff;fill-opacity:1;fill-rule:nonzero;stroke:none"
           id="path60562" /><path
           d="m 390.252,141.096 c 10e-4,-1.149 0.252,-2.229 0.775,-3.222 l 19.959,22.99 c -1.42,4.055 -1.809,5.18 -2.923,8.713 l -16.391,-23.353 c -0.909,-1.703 -1.422,-3.48 -1.42,-5.128"
           style="fill:#ffffff;fill-opacity:1;fill-rule:nonzero;stroke:none"
           id="path60564" /><path
           d="m 413.679,118.298 c 1.811,-2.11 3.654,-4.194 5.523,-6.263 l 8.063,8.763 c -1.348,2.816 -2.659,5.663 -3.933,8.534 z"
           style="fill:#8cc63f;fill-opacity:1;fill-rule:nonzero;stroke:none"
           id="path60566" /><path
           d="m 426.517,115.832 c -1.249,-2.612 -2.746,-5.958 -3.735,-8.841 -0.661,-1.915 -1.083,-3.648 -1.076,-4.711 0,-0.051 0.006,-0.088 0.007,-0.134 l 9.975,9.769 c -1.225,2.353 -2.415,4.738 -3.581,7.143 -0.405,-0.798 -0.966,-1.921 -1.59,-3.226"
           style="fill:#8cc63f;fill-opacity:1;fill-rule:nonzero;stroke:none"
           id="path60568" /><path
           d="m 435.482,101.748 c -0.686,-1.962 -1.51,-4.499 -2.052,-6.766 -0.364,-1.508 -0.598,-2.906 -0.595,-3.878 0,-0.013 0.001,-0.023 0.001,-0.038 l 5.727,8.488 c -0.808,1.359 -1.598,2.742 -2.383,4.129 -0.199,-0.536 -0.437,-1.193 -0.698,-1.935"
           style="fill:#8cc63f;fill-opacity:1;fill-rule:nonzero;stroke:none"
           id="path60570" /><path
           d="m 427.453,101.829 c 0.237,-1.087 0.555,-2.314 0.964,-3.59 l 6.744,7.235 c -0.889,1.594 -1.759,3.211 -2.62,4.839 z"
           style="fill:#8cc63f;fill-opacity:1;fill-rule:nonzero;stroke:none"
           id="path60572" /><path
           d="m 450.692,81.26 c -0.268,0.386 -0.538,0.766 -0.799,1.164 -3.644,4.895 -7.095,10.118 -10.386,15.563 l -2.116,-4.641 c 4.316,-4.127 8.745,-8.161 13.301,-12.086"
           style="fill:#8cc63f;fill-opacity:1;fill-rule:nonzero;stroke:none"
           id="path60574" /><path
           d="m 400.296,125.93 c 0.002,-0.237 0.047,-0.46 0.15,-0.702 l 17.456,17.01 c -0.843,2.125 -1.663,4.256 -2.471,6.388 l -14.446,-20.455 c -0.436,-0.994 -0.697,-1.712 -0.689,-2.241"
           style="fill:#ffffff;fill-opacity:1;fill-rule:nonzero;stroke:none"
           id="path60576" /><path
           d="m 394.321,130.805 c -0.409,-0.744 -0.619,-1.626 -0.619,-2.444 -10e-4,-0.437 0.063,-0.848 0.171,-1.211 l 20.917,23.156 c -0.861,2.3 -1.693,4.603 -2.509,6.905 z"
           style="fill:#ffffff;fill-opacity:1;fill-rule:nonzero;stroke:none"
           id="path60578" /><path
           d="m 337.084,256.354 c 0.188,-0.947 0.406,-1.88 1.027,-4.009 l 47.298,44.837 c -0.147,2.798 -0.268,5.587 -0.383,8.372 l -32.459,-31.697 32.314,35.545 c -0.081,2.29 -0.151,4.575 -0.207,6.855 l -48.659,-54.968 c 0.665,-2.739 0.856,-3.875 1.069,-4.935"
           style="fill:#ffffff;fill-opacity:1;fill-rule:nonzero;stroke:none"
           id="path60580" /><path
           d="m 308.952,470.076 c 1.007,2.792 1.943,5.491 2.774,8.048 l -7.392,14.998 c -1.088,-1.095 -2.182,-2.197 -3.287,-3.324 z"
           style="fill:#ff0000;fill-opacity:1;fill-rule:nonzero;stroke:none"
           id="path60582" /><path
           d="m 311.448,500.162 7.827,-12.306 c 0.308,1.634 0.438,3.274 0.438,4.872 10e-4,3.928 -0.773,7.593 -1.528,10.344 -0.359,0.908 -0.696,1.776 -1.013,2.602 -1.871,-1.778 -3.78,-3.613 -5.724,-5.512"
           style="fill:#ff0000;fill-opacity:1;fill-rule:nonzero;stroke:none"
           id="path60584" /><path
           d="m 315.935,474.871 c 0.215,1.149 0.318,2.383 0.317,3.657 0,2.567 -0.37,5.26 -0.807,7.596 l -5.089,12.972 c -1.652,-1.618 -3.326,-3.272 -5.026,-4.973 z"
           style="fill:#ff0000;fill-opacity:1;fill-rule:nonzero;stroke:none"
           id="path60586" /><path
           d="m 294.953,483.514 11.421,-23.999 -0.044,-0.11 1.16,-2.454 c 0.62,2.152 1.079,5.009 1.077,7.845 0,1.106 -0.072,2.207 -0.222,3.263 l -8.304,20.712 c -1.678,-1.717 -3.374,-3.469 -5.088,-5.257"
           style="fill:#ff0000;fill-opacity:1;fill-rule:nonzero;stroke:none"
           id="path60588" /><path
           d="m 308.345,468.058 v 0.001 l -8.303,20.713 h -10e-4 z"
           style="fill:#ff0000;fill-opacity:1;fill-rule:nonzero;stroke:none"
           id="path60590" /><path
           d="m 292.407,480.841 8.707,-22.931 -10.61,20.918 c -0.682,-0.724 -1.363,-1.448 -2.048,-2.182 l 13.135,-25.355 c 1.158,2.754 2.266,5.452 3.306,8.073 l -10.918,23.129 c -0.522,-0.546 -1.047,-1.099 -1.572,-1.652"
           style="fill:#ffffff;fill-opacity:1;fill-rule:nonzero;stroke:none"
           id="path60592" /><path
           d="m 283.024,470.765 15.513,-29.818 -0.11,-0.241 2.443,-4.766 c 0.539,1.842 0.928,4.456 0.924,7.212 0.001,2.128 -0.228,4.34 -0.76,6.357 l -13.528,26.112 c -1.487,-1.598 -2.979,-3.21 -4.482,-4.856"
           style="fill:#ffffff;fill-opacity:1;fill-rule:nonzero;stroke:none"
           id="path60594" /><path
           d="m 278.712,466.009 15.735,-30.851 c 0.859,1.855 1.704,3.697 2.521,5.513 l -14.891,29.053 c -1.119,-1.228 -2.238,-2.461 -3.365,-3.715"
           style="fill:#ffffff;fill-opacity:1;fill-rule:nonzero;stroke:none"
           id="path60596" /><path
           d="m 287.364,420.464 c 1.05,2.098 2.083,4.185 3.086,6.249 l -18.514,31.633 c -1.635,-1.874 -3.273,-3.766 -4.918,-5.692 z"
           style="fill:#ff0000;fill-opacity:1;fill-rule:nonzero;stroke:none"
           id="path60598" /><path
           d="m 261.852,446.55 24.201,-37.083 c 0.673,1.551 1.235,3.518 1.235,5.797 0,1.127 -0.139,2.331 -0.469,3.601 l -20.694,32.741 c -1.422,-1.669 -2.847,-3.349 -4.273,-5.056"
           style="fill:#ff0000;fill-opacity:1;fill-rule:nonzero;stroke:none"
           id="path60600" /><path
           d="m 286.82,418.865 v 0 l -20.695,32.743 v -0.002 z"
           style="fill:#ff0000;fill-opacity:1;fill-rule:nonzero;stroke:none"
           id="path60602" /><path
           d="m 279.978,398.683 c 0.122,0.44 0.179,0.902 0.181,1.458 0.002,1.169 -0.246,2.725 -0.51,4.979 l -23.159,34.939 c -1.421,-1.739 -2.841,-3.49 -4.264,-5.267 z"
           style="fill:#ff0000;fill-opacity:1;fill-rule:nonzero;stroke:none"
           id="path60604" /><path
           d="m 274.398,395.994 c 0.701,1.244 1.166,2.087 1.914,3.436 l -24.944,34.287 c -1.393,-1.749 -2.79,-3.51 -4.183,-5.293 z"
           style="fill:#ff0000;fill-opacity:1;fill-rule:nonzero;stroke:none"
           id="path60606" /><path
           d="m 264.335,399.456 -21.685,23.098 c -0.442,-0.576 -0.885,-1.139 -1.326,-1.72 l 32.046,-36.683 c 0.896,1.684 1.755,3.868 1.755,6.38 0,0.609 -0.055,1.241 -0.169,1.889 l -28.604,34.937 c -0.723,-0.928 -1.443,-1.874 -2.165,-2.81 z"
           style="fill:#ffffff;fill-opacity:1;fill-rule:nonzero;stroke:none"
           id="path60608" /><path
           d="m 238.923,417.64 21.289,-26.514 -22.885,24.38 c -0.564,-0.756 -1.132,-1.501 -1.695,-2.264 l 31.718,-33.288 c 0.421,0.679 0.818,1.332 1.12,2.002 0.407,0.909 0.672,1.88 0.675,3.186 0,0.343 -0.03,0.721 -0.07,1.112 l -28.566,33.502 c -0.531,-0.698 -1.057,-1.412 -1.586,-2.116"
           style="fill:#ff0000;fill-opacity:1;fill-rule:nonzero;stroke:none"
           id="path60610" /><path
           d="m 262.126,375.207 c 0.947,1.518 1.54,2.482 2.511,4.086 l -29.808,32.859 c -1.293,-1.757 -2.586,-3.524 -3.874,-5.309 z"
           style="fill:#ff0000;fill-opacity:1;fill-rule:nonzero;stroke:none"
           id="path60612" /><path
           d="m 230.177,405.758 c -0.642,-0.894 -1.279,-1.808 -1.918,-2.709 l 26.918,-28.788 -28.407,26.684 c -0.574,-0.816 -1.152,-1.615 -1.725,-2.435 l 35.097,-33.677 c 0.636,1.146 1.024,2.267 1.403,3.441 0.41,1.266 0.848,2.598 1.636,3.99 l -0.819,0.832 -0.034,-0.057 z"
           style="fill:#ff0000;fill-opacity:1;fill-rule:nonzero;stroke:none"
           id="path60614" /><path
           d="m 262.328,373.04 0.035,0.055 -32.185,32.665 c 0,-0.002 0,-0.002 -0.002,-0.002 z"
           style="fill:#ff0000;fill-opacity:1;fill-rule:nonzero;stroke:none"
           id="path60616" /><path
           d="m 254.773,360.959 -31.371,34.113 c -2.232,-3.196 -2.579,-3.645 -4.851,-7.065 l 34.836,-34.827 c 1.304,2.094 1.71,3.817 1.714,5.338 0,0.861 -0.137,1.663 -0.328,2.441"
           style="fill:#ff0000;fill-opacity:1;fill-rule:nonzero;stroke:none"
           id="path60618" /><path
           d="m 210.65,376.476 21.302,-26.53 -22.925,24.421 c -0.598,-0.95 -1.205,-1.888 -1.801,-2.842 l 29.075,-33.817 c 2.106,2.761 4.03,5.31 5.723,7.616 l -29.788,34.098 c -0.745,-1.155 -1.479,-2.33 -2.216,-3.494 z"
           style="fill:#ff0000;fill-opacity:1;fill-rule:nonzero;stroke:none"
           id="path60620" /><path
           d="m 227.359,320.25 c 0.733,1.034 1.08,1.749 1.286,2.496 0.242,0.868 0.324,1.92 0.588,3.595 l -26.302,38.201 c -1.013,-1.673 -2.02,-3.354 -3.022,-5.042 z"
           style="fill:#ff0000;fill-opacity:1;fill-rule:nonzero;stroke:none"
           id="path60622" /><path
           d="m 188.995,264.75 c -0.36,0.875 -0.785,1.854 -1.274,2.94 -1.517,3.362 -3.587,7.608 -5.779,11.969 -4.384,8.728 -9.258,17.935 -11.207,21.596 -0.081,0.152 -0.147,0.272 -0.216,0.404 -0.772,-1.88 -1.546,-3.801 -2.324,-5.775 z"
           style="fill:#ffffff;fill-opacity:1;fill-rule:nonzero;stroke:none"
           id="path60624" /><path
           d="m 215.61,322.331 4.059,-6.184 c 1.322,1.715 2.623,3.405 3.892,5.048 l -24.4,37.028 c -1.12,-1.907 -2.232,-3.827 -3.336,-5.757 z"
           style="fill:#ff0000;fill-opacity:1;fill-rule:nonzero;stroke:none"
           id="path60626" /><path
           d="m 195.094,351.183 c -0.886,-1.557 -1.767,-3.118 -2.643,-4.69 l 24.069,-34.447 c 0.773,1.009 1.542,2.012 2.302,2.998 l -12.926,19.687 z"
           style="fill:#ff0000;fill-opacity:1;fill-rule:nonzero;stroke:none"
           id="path60628" /><path
           d="m 218.823,315.044 v 0 l -12.926,19.687 z"
           style="fill:#ff0000;fill-opacity:1;fill-rule:nonzero;stroke:none"
           id="path60630" /><path
           d="m 183.268,329.298 c -0.609,-1.193 -1.216,-2.388 -1.821,-3.59 l 20.374,-33.192 c 0.749,1.016 1.498,2.035 2.243,3.039 z"
           style="fill:#ff0000;fill-opacity:1;fill-rule:nonzero;stroke:none"
           id="path60632" /><path
           d="m 196.86,285.722 c 0.476,0.66 0.952,1.319 1.432,1.976 l -19.284,33.122 c -0.494,-1.028 -0.997,-2.08 -1.507,-3.173 z"
           style="fill:#ff0000;fill-opacity:1;fill-rule:nonzero;stroke:none"
           id="path60634" /><path
           d="m 194.402,278.634 c -0.198,0.479 -0.407,0.975 -0.633,1.501 -1.497,3.487 -3.536,7.938 -5.696,12.539 -4.321,9.202 -9.123,18.996 -11.043,22.895 -0.095,0.192 -0.173,0.349 -0.253,0.513 -0.691,-1.5 -1.391,-3.042 -2.104,-4.655 z"
           style="fill:#ff0000;fill-opacity:1;fill-rule:nonzero;stroke:none"
           id="path60636" /><path
           d="m 189.723,341.547 25.334,-36.123 c 0.201,0.506 0.363,1.112 0.475,1.797 0.177,1.075 0.248,2.308 0.295,3.523 l -1.619,2.316 -22.467,32.153 c -0.675,-1.217 -1.348,-2.439 -2.018,-3.666"
           style="fill:#ff0000;fill-opacity:1;fill-rule:nonzero;stroke:none"
           id="path60638" /><path
           d="M 214.208,313.06 191.74,345.215 Z"
           style="fill:#ff0000;fill-opacity:1;fill-rule:nonzero;stroke:none"
           id="path60640" /><path
           d="m 181.234,261.088 -0.228,-0.341 c -0.03,-0.045 -0.058,-0.09 -0.088,-0.135 l 1.443,-2.564 c 0.439,1.125 0.684,2.623 0.682,4.34 0,1.358 -0.148,2.85 -0.443,4.399 -0.042,0.238 -0.223,0.757 -0.508,1.416 -0.286,0.665 -0.677,1.488 -1.148,2.427 -0.942,1.879 -2.198,4.218 -3.573,6.699 -2.75,4.965 -5.973,10.505 -8.111,14.139 -0.693,1.177 -1.267,2.149 -1.678,2.843 -0.759,-1.944 -1.517,-3.915 -2.271,-5.941 z"
           style="fill:#ffffff;fill-opacity:1;fill-rule:nonzero;stroke:none"
           id="path60642" /><path
           d="m 161.827,278.688 14.437,-22.759 c 1.029,1.583 2.069,3.16 3.115,4.737 l -14.667,26.076 c -0.968,-2.627 -1.933,-5.307 -2.885,-8.054"
           style="fill:#ffffff;fill-opacity:1;fill-rule:nonzero;stroke:none"
           id="path60644" /><path
           d="m 164.712,286.742 14.667,-26.076 c 0.104,0.154 0.204,0.311 0.309,0.466 l -14.967,25.639 c -0.002,-0.01 -0.006,-0.019 -0.009,-0.029"
           style="fill:#ff0000;fill-opacity:1;fill-rule:nonzero;stroke:none"
           id="path60646" /><path
           d="m 168.396,247.114 -11.794,15.572 c -0.214,-0.7 -0.433,-1.389 -0.644,-2.092 l 0.218,-0.354 12.242,-19.896 -0.001,-0.002 1.729,-2.81 c 0.195,0.807 0.317,1.856 0.385,2.979 0.117,1.791 0.147,3.781 0.377,5.484 0.135,0.971 0.334,1.841 0.689,2.569 l -12.565,21.816 c -0.5,-1.532 -0.997,-3.07 -1.486,-4.626 z"
           style="fill:#ff0000;fill-opacity:1;fill-rule:nonzero;stroke:none"
           id="path60648" /><path
           d="m 155.458,258.897 c -0.421,-1.415 -0.839,-2.832 -1.245,-4.261 l 10.833,-16.873 c 0.625,0.919 1.241,1.669 1.825,2.585 l -8.567,13.923 z"
           style="fill:#ff0000;fill-opacity:1;fill-rule:nonzero;stroke:none"
           id="path60650" /><path
           d="m 166.871,240.348 v 10e-4 l -8.567,13.922 z"
           style="fill:#ff0000;fill-opacity:1;fill-rule:nonzero;stroke:none"
           id="path60652" /><path
           d="m 162.724,231.878 -10.818,14.278 c -0.241,-0.925 -0.488,-1.845 -0.723,-2.774 l 10.212,-14.7 c 0.5,0.929 0.846,1.594 1.121,2.278 0.341,0.85 0.6,1.79 0.929,3.372 l -9.754,18.431 c -0.338,-1.21 -0.677,-2.422 -1.007,-3.643 z"
           style="fill:#ff0000;fill-opacity:1;fill-rule:nonzero;stroke:none"
           id="path60654" /><path
           d="m 156.385,222.098 c 0.949,1.857 1.927,3.725 2.936,5.6 l -8.579,13.868 c -0.576,-2.322 -1.145,-4.65 -1.676,-6.992 z"
           style="fill:#ff0000;fill-opacity:1;fill-rule:nonzero;stroke:none"
           id="path60656" /><path
           d="m 156.322,210.069 c -0.123,0.521 -0.263,1.076 -0.438,1.693 -0.509,1.798 -1.215,3.966 -2.001,6.233 -1.573,4.537 -3.465,9.475 -4.727,12.697 -0.22,0.566 -0.421,1.073 -0.597,1.522 -0.51,-2.315 -1.017,-4.631 -1.476,-6.953 z"
           style="fill:#ff0000;fill-opacity:1;fill-rule:nonzero;stroke:none"
           id="path60658" /><path
           d="m 144.824,212.411 4.618,-5.221 c 0.845,2.023 1.734,4.065 2.678,6.126 l -5.425,9.895 c -0.687,-3.6 -1.321,-7.203 -1.871,-10.8"
           style="fill:#ff0000;fill-opacity:1;fill-rule:nonzero;stroke:none"
           id="path60660" /><path
           d="m 152.537,192.331 c -0.14,0.541 -0.34,1.182 -0.596,1.883 -0.52,1.447 -1.25,3.177 -2.062,4.972 -1.624,3.59 -3.581,7.454 -4.885,9.964 -0.182,0.355 -0.348,0.671 -0.502,0.965 -0.409,-2.815 -0.782,-5.625 -1.091,-8.417 z"
           style="fill:#ff0000;fill-opacity:1;fill-rule:nonzero;stroke:none"
           id="path60662" /><path
           d="m 142.165,184.268 c 0.823,4.197 2.017,8.562 3.534,13.065 l -2.474,2.627 c -0.545,-5.297 -0.915,-10.542 -1.06,-15.692"
           style="fill:#ff0000;fill-opacity:1;fill-rule:nonzero;stroke:none"
           id="path60664" /><path
           d="m 154.289,397.03 71.419,13.767 c 1.795,2.491 3.601,4.943 5.409,7.375 l -68.14,-11.355 c -3.415,-2.65 -6.817,-6.522 -8.688,-9.787"
           style="fill:#ffffff;fill-opacity:1;fill-rule:nonzero;stroke:none"
           id="path60666" /><path
           d="m 312.552,510.191 c -0.075,0.176 -0.155,0.332 -0.239,0.465 -0.564,0.368 -1.796,0.995 -3.513,1.709 -1.817,0.757 -4.173,1.617 -6.884,2.427 -5.424,1.622 -12.286,3.037 -19.166,3.037 -2.224,0 -4.448,-0.148 -6.626,-0.481 l 30.833,-12.528 c 1.894,1.84 3.768,3.64 5.595,5.371"
           style="fill:#ff0000;fill-opacity:1;fill-rule:nonzero;stroke:none"
           id="path60668" /><path
           d="m 241.348,502.918 51.492,-12.222 c 1.968,2.027 3.91,4.001 5.829,5.929 l -48.291,8.051 c -3.467,-0.179 -5.692,-0.399 -9.03,-1.758"
           style="fill:#ff0000;fill-opacity:1;fill-rule:nonzero;stroke:none"
           id="path60670" /><path
           d="m 232.106,495.165 c -1.495,-0.57 -3.134,-1.409 -5.44,-2.874 l 58.473,-9.648 c 2.202,2.339 4.383,4.621 6.539,6.85 l -53.847,7.215 c -2.351,-0.55 -3.972,-0.875 -5.725,-1.543"
           style="fill:#ff0000;fill-opacity:1;fill-rule:nonzero;stroke:none"
           id="path60672" /><path
           d="m 201.917,465.587 67.845,0.187 c 2.022,2.286 4.035,4.539 6.035,6.747 l -67.908,-0.94 c -2.419,-2.337 -3.954,-3.675 -5.972,-5.994"
           style="fill:#ff0000;fill-opacity:1;fill-rule:nonzero;stroke:none"
           id="path60674" /><path
           d="m 183.842,447.46 c -1.132,-0.62 -2.07,-1.369 -3.017,-2.526 l 75.682,5.413 c 1.775,2.12 3.546,4.214 5.312,6.279 l -72.206,-6.969 c -2.503,-0.828 -4.319,-1.404 -5.771,-2.197"
           style="fill:#ff0000;fill-opacity:1;fill-rule:nonzero;stroke:none"
           id="path60676" /><path
           d="m 173.922,432.88 73.077,5.84 c 0.765,0.955 1.533,1.895 2.299,2.844 l -41.851,-2.063 44.009,4.731 c 1.275,1.564 2.55,3.101 3.823,4.633 l -74.956,-8.878 c -2.015,-1.631 -4.567,-4.484 -6.401,-7.107"
           style="fill:#ff0000;fill-opacity:1;fill-rule:nonzero;stroke:none"
           id="path60678" /><path
           d="m 171.933,422.603 66.71,5.489 c 0.873,1.131 1.747,2.248 2.62,3.369 l -42.338,-2.052 44.408,4.694 c 0.837,1.063 1.675,2.118 2.513,3.168 l -68.459,-7.121 c -2.577,-3.153 -3.842,-4.887 -5.454,-7.547"
           style="fill:#ffffff;fill-opacity:1;fill-rule:nonzero;stroke:none"
           id="path60680" /><path
           d="m 160.257,411.156 72,8.552 c 1.748,2.342 3.502,4.637 5.254,6.914 l -68.881,-8.36 c -3.499,-1.092 -6.049,-3.124 -8.373,-7.106"
           style="fill:#ffffff;fill-opacity:1;fill-rule:nonzero;stroke:none"
           id="path60682" /><path
           d="m 143.191,376.386 65.881,10.208 c 1.247,1.906 2.505,3.791 3.764,5.673 l -42.672,-8.83 44.689,11.832 c 1.097,1.622 2.2,3.233 3.307,4.834 l -73.341,-19.094 c -0.396,-1.331 -0.536,-1.734 -1.628,-4.623"
           style="fill:#ff0000;fill-opacity:1;fill-rule:nonzero;stroke:none"
           id="path60684" /><path
           d="m 135.974,336.162 46.355,5.463 c 0.74,1.384 1.49,2.758 2.241,4.132 l -34.191,-3.924 35.732,6.743 c 0.826,1.497 1.661,2.984 2.501,4.468 l -50.92,-10.472 c -0.776,-2.773 -1.083,-3.841 -1.718,-6.41"
           style="fill:#ff0000;fill-opacity:1;fill-rule:nonzero;stroke:none"
           id="path60686" /><path
           d="m 130.723,328.508 c -0.21,-0.668 -0.407,-1.325 -0.667,-2.463 l 45.61,2.68 c 0.715,1.435 1.444,2.859 2.171,4.287 l -35.35,-2.679 36.664,5.413 0.016,-0.14 c 0.783,1.519 1.578,3.026 2.376,4.531 l -49.959,-8.653 c -0.365,-1.441 -0.623,-2.228 -0.861,-2.976"
           style="fill:#ff0000;fill-opacity:1;fill-rule:nonzero;stroke:none"
           id="path60688" /><path
           d="m 130.145,318.166 c -1.215,-1.369 -2.576,-2.717 -3.52,-4.001 -0.408,-0.549 -0.721,-1.082 -0.933,-1.584 l 43.145,1.656 c 0.652,1.48 1.295,2.908 1.931,4.303 l -37.726,-1.965 38.958,4.631 c 0.787,1.682 1.561,3.305 2.308,4.827 0.21,0.425 0.42,0.838 0.631,1.252 l -42.314,-5.287 c -0.436,-1.353 -1.396,-2.599 -2.48,-3.832"
           style="fill:#ff0000;fill-opacity:1;fill-rule:nonzero;stroke:none"
           id="path60690" /><path
           d="m 126.696,305.037 c -0.884,-1.035 -1.481,-2.076 -1.957,-3.189 l 40.611,4.216 c 0.967,2.336 1.926,4.592 2.872,6.763 l -36.394,-3.759 c -2.411,-1.4 -4.009,-2.716 -5.132,-4.031"
           style="fill:#ff0000;fill-opacity:1;fill-rule:nonzero;stroke:none"
           id="path60692" /><path
           d="m 124.678,284.017 c -0.455,-0.927 -0.704,-1.811 -0.848,-3.046 l 33.713,4.802 c 0.316,0.881 0.633,1.748 0.949,2.616 l -26.513,-2.399 27.449,4.953 c 0.345,0.931 0.691,1.851 1.037,2.766 l -33.164,-5.601 c -1.252,-1.817 -2.096,-3.016 -2.623,-4.091"
           style="fill:#ffffff;fill-opacity:1;fill-rule:nonzero;stroke:none"
           id="path60694" /><path
           d="m 142.431,269.726 c -6.795,-2.986 -14.645,-6.677 -18.715,-9.387 -0.738,-0.487 -1.332,-0.943 -1.778,-1.342 l 29.255,7.613 c 0.817,2.66 1.65,5.287 2.5,7.878 -0.624,-0.253 -1.439,-0.588 -2.427,-0.997 -2.291,-0.948 -5.434,-2.271 -8.835,-3.765"
           style="fill:#ff0000;fill-opacity:1;fill-rule:nonzero;stroke:none"
           id="path60696" /><path
           d="m 122.261,251.029 c -0.708,-0.935 -1.141,-1.974 -1.274,-3.099 l 26.788,6.963 c 1.02,3.771 1.308,4.816 2.29,8.035 l -24.31,-9.076 c -1.434,-0.745 -2.651,-1.708 -3.494,-2.823"
           style="fill:#ff0000;fill-opacity:1;fill-rule:nonzero;stroke:none"
           id="path60698" /><path
           d="m 128.805,214.054 10.554,2.419 c 0.44,2.805 0.921,5.612 1.444,8.423 l -12.917,-3.307 c 0.274,-2.511 0.585,-5.024 0.919,-7.535"
           style="fill:#ff0000;fill-opacity:1;fill-rule:nonzero;stroke:none"
           id="path60700" /><path
           d="m 129.229,208.672 c -1.484,-1.075 -2.731,-2.143 -3.386,-2.98 -0.098,-0.123 -0.18,-0.238 -0.249,-0.347 l 12.511,2.192 c 0.293,2.395 0.629,4.796 0.992,7.198 -0.679,-0.371 -1.614,-0.887 -2.684,-1.504 -2.199,-1.263 -4.958,-2.938 -7.184,-4.559"
           style="fill:#ff0000;fill-opacity:1;fill-rule:nonzero;stroke:none"
           id="path60702" /><path
           d="m 130.563,193.823 c -1.005,-0.915 -1.846,-1.806 -2.319,-2.508 l 8.653,3.415 c 0.096,1.434 0.216,2.878 0.34,4.323 -0.445,-0.314 -0.967,-0.687 -1.584,-1.139 -1.558,-1.143 -3.516,-2.654 -5.09,-4.091"
           style="fill:#ff0000;fill-opacity:1;fill-rule:nonzero;stroke:none"
           id="path60704" /><path
           d="m 128.616,198.968 8.781,1.953 c 0.153,1.651 0.333,3.312 0.523,4.975 l -8.18,-3.741 c -0.382,-0.939 -0.774,-2.021 -1.124,-3.187"
           style="fill:#ff0000;fill-opacity:1;fill-rule:nonzero;stroke:none"
           id="path60706" /><path
           d="m 136.573,174.802 c 0,0.081 -0.004,0.16 -0.004,0.243 0,0.348 0.004,0.697 0.009,1.047 -0.077,2.015 -0.113,4.048 -0.113,6.097 0,3.582 0.128,7.217 0.339,10.883 l -3.978,-2.394 c 1.112,-5.305 2.354,-10.599 3.747,-15.876"
           style="fill:#ff0000;fill-opacity:1;fill-rule:nonzero;stroke:none"
           id="path60708" /><path
           d="m 121.933,234.396 c -0.212,-0.249 -0.34,-0.477 -0.402,-0.799 l 21.844,3.771 c 0.459,2.028 0.941,4.047 1.433,6.063 l -21.359,-7.904 c -0.7,-0.438 -1.219,-0.793 -1.516,-1.131"
           style="fill:#ff0000;fill-opacity:1;fill-rule:nonzero;stroke:none"
           id="path60710" /><path
           d="m 141.5,364.523 c -0.346,-0.81 -0.665,-1.621 -1.294,-3.535 l 58.539,9.278 c 1.329,2.175 2.672,4.327 4.02,6.475 l -40.648,-7.062 42.519,10.023 c 1.119,1.758 2.242,3.508 3.373,5.247 l -64.77,-16.175 c -0.912,-2.396 -1.353,-3.348 -1.739,-4.251"
           style="fill:#ff0000;fill-opacity:1;fill-rule:nonzero;stroke:none"
           id="path60712" /></g></g></g></svg>
